<svg width="50" height="50" viewBox="0 0 50 50" fill="none" xmlns="http://www.w3.org/2000/svg">
<circle cx="25" cy="25" r="25" fill="#259EB1"/>
<path d="M20.075 33.976L24.659 27.016C25.163 26.256 25.595 25.564 25.955 24.94C26.315 24.316 26.587 23.74 26.771 23.212C26.963 22.676 27.059 22.168 27.059 21.688C27.059 20.856 26.823 20.196 26.351 19.708C25.887 19.22 25.251 18.976 24.443 18.976C23.643 18.976 22.903 19.148 22.223 19.492C21.551 19.836 20.931 20.296 20.363 20.872L20.075 18.472C20.627 18.024 21.291 17.64 22.067 17.32C22.851 17 23.723 16.84 24.683 16.84C25.707 16.84 26.567 17.044 27.263 17.452C27.959 17.86 28.483 18.412 28.835 19.108C29.187 19.804 29.363 20.584 29.363 21.448C29.363 22.192 29.263 22.9 29.063 23.572C28.863 24.236 28.563 24.928 28.163 25.648C27.763 26.368 27.267 27.176 26.675 28.072L24.131 31.912H30.011V33.976H20.075Z" fill="white"/>
</svg>
