<svg width="50" height="50" viewBox="0 0 50 50" fill="none" xmlns="http://www.w3.org/2000/svg">
<circle cx="25" cy="25" r="25" fill="#259EB1"/>
<path d="M24.2678 34.336C23.3478 34.336 22.4878 34.216 21.6878 33.976C20.8958 33.736 20.1558 33.432 19.4678 33.064L20.0198 30.952C20.7078 31.344 21.3838 31.664 22.0478 31.912C22.7198 32.152 23.4678 32.272 24.2918 32.272C25.3398 32.272 26.1558 32.012 26.7398 31.492C27.3318 30.964 27.6278 30.288 27.6278 29.464C27.6278 28.536 27.3078 27.792 26.6678 27.232C26.0278 26.672 25.0278 26.392 23.6678 26.392H22.6118V24.328H23.6678C24.6998 24.328 25.5158 24.084 26.1158 23.596C26.7238 23.108 27.0278 22.44 27.0278 21.592C27.0278 20.688 26.7958 20.02 26.3318 19.588C25.8678 19.148 25.2038 18.928 24.3398 18.928C23.6598 18.928 23.0238 19.06 22.4318 19.324C21.8398 19.588 21.2598 19.912 20.6918 20.296L20.3078 17.968C20.9238 17.616 21.5878 17.344 22.2998 17.152C23.0198 16.96 23.8038 16.864 24.6518 16.864C25.6918 16.864 26.5718 17.052 27.2918 17.428C28.0198 17.804 28.5718 18.328 28.9478 19C29.3318 19.664 29.5238 20.432 29.5238 21.304C29.5238 22.392 29.2038 23.312 28.5638 24.064C27.9318 24.808 27.0758 25.296 25.9958 25.528V24.976C27.2678 25.224 28.2598 25.708 28.9718 26.428C29.6918 27.14 30.0518 28.128 30.0518 29.392C30.0518 30.416 29.7958 31.3 29.2838 32.044C28.7798 32.78 28.0918 33.348 27.2198 33.748C26.3478 34.14 25.3638 34.336 24.2678 34.336Z" fill="white"/>
</svg>
