<svg width="170" height="170" viewBox="0 0 170 170" fill="none" xmlns="http://www.w3.org/2000/svg">
<g filter="url(#filter0_d_24_41)">
<rect x="6" y="2" width="150" height="150" rx="20" fill="#259EB1"/>
</g>
<path d="M75.75 45C74.6639 44.9994 73.6043 45.3357 72.7173 45.9626C71.8303 46.5895 71.1595 47.476 70.7975 48.5H65.25C63.8576 48.5 62.5223 49.0531 61.5377 50.0377C60.5531 51.0223 60 52.3576 60 53.75V95.75C60 97.1424 60.5531 98.4777 61.5377 99.4623C62.5223 100.447 63.8576 101 65.25 101H74.014C74.0402 100.59 74.1034 100.184 74.203 99.7855L75.5155 94.5425C76.0054 92.5752 77.0218 90.7784 78.4555 89.345L95.3605 72.44C97.1299 70.6687 99.4988 69.6247 102 69.514V53.75C102 52.3576 101.447 51.0223 100.462 50.0377C99.4777 49.0531 98.1424 48.5 96.75 48.5H91.2025C90.8405 47.476 90.1697 46.5895 89.2827 45.9626C88.3957 45.3357 87.3361 44.9994 86.25 45H75.75ZM74 50.25C74 49.7859 74.1844 49.3408 74.5126 49.0126C74.8408 48.6844 75.2859 48.5 75.75 48.5H86.25C86.7141 48.5 87.1593 48.6844 87.4874 49.0126C87.8156 49.3408 88 49.7859 88 50.25C88 50.7141 87.8156 51.1592 87.4874 51.4874C87.1593 51.8156 86.7141 52 86.25 52H75.75C75.2859 52 74.8408 51.8156 74.5126 51.4874C74.1844 51.1592 74 50.7141 74 50.25ZM80.93 91.8195L97.835 74.9145C99.0631 73.6873 100.728 72.9983 102.464 72.999C104.201 72.9996 105.865 73.6899 107.092 74.918C108.32 76.1461 109.009 77.8114 109.008 79.5475C109.007 81.2836 108.317 82.9483 107.089 84.1755L90.184 101.077C89.1992 102.062 87.9653 102.761 86.614 103.1L81.371 104.409C80.8497 104.539 80.3036 104.532 79.7858 104.388C79.2681 104.245 78.7962 103.97 78.4161 103.59C78.036 103.21 77.7606 102.739 77.6167 102.221C77.4727 101.704 77.4651 101.157 77.5945 100.636L78.907 95.393C79.2427 94.0406 79.9423 92.806 80.93 91.823V91.8195Z" fill="white"/>
<defs>
<filter id="filter0_d_24_41" x="0" y="0" width="170" height="170" filterUnits="userSpaceOnUse" color-interpolation-filters="sRGB">
<feFlood flood-opacity="0" result="BackgroundImageFix"/>
<feColorMatrix in="SourceAlpha" type="matrix" values="0 0 0 0 0 0 0 0 0 0 0 0 0 0 0 0 0 0 127 0" result="hardAlpha"/>
<feOffset dx="4" dy="8"/>
<feGaussianBlur stdDeviation="5"/>
<feComposite in2="hardAlpha" operator="out"/>
<feColorMatrix type="matrix" values="0 0 0 0 0 0 0 0 0 0 0 0 0 0 0 0 0 0 0.25 0"/>
<feBlend mode="normal" in2="BackgroundImageFix" result="effect1_dropShadow_24_41"/>
<feBlend mode="normal" in="SourceGraphic" in2="effect1_dropShadow_24_41" result="shape"/>
</filter>
</defs>
</svg>
