<svg width="512" height="364" viewBox="0 0 512 364" fill="none" xmlns="http://www.w3.org/2000/svg">
<g clip-path="url(#clip0_24_56)">
<path d="M511.375 343.644C511.375 354.69 502.421 363.644 491.375 363.644H20C8.95428 363.644 -3.05176e-05 354.69 -3.05176e-05 343.644V19.9999C-3.05176e-05 8.95422 8.95428 -6.10352e-05 20 -6.10352e-05H491.375C502.421 -6.10352e-05 511.375 8.95425 511.375 19.9999V343.644Z" fill="#259EB1"/>
<path d="M247.073 307.137C288.914 307.137 322.832 273.219 322.832 231.378C322.832 189.537 288.914 155.619 247.073 155.619C205.232 155.619 171.314 189.537 171.314 231.378C171.314 273.219 205.232 307.137 247.073 307.137ZM247.073 170.77C280.546 170.77 307.68 197.905 307.68 231.378C307.68 264.85 280.546 291.985 247.073 291.985C213.6 291.985 186.465 264.85 186.465 231.378C186.465 197.905 213.6 170.77 247.073 170.77Z" fill="#1AA7BF"/>
<path d="M247.073 291.985C280.546 291.985 307.68 264.85 307.68 231.378C307.68 197.905 280.546 170.771 247.073 170.771C213.6 170.771 186.465 197.905 186.465 231.378C186.465 264.85 213.6 291.985 247.073 291.985ZM247.073 185.922C272.177 185.922 292.528 206.274 292.528 231.378C292.528 256.482 272.177 276.833 247.073 276.833C221.969 276.833 201.617 256.482 201.617 231.378C201.617 206.274 221.969 185.922 247.073 185.922Z" fill="#3CB4C9"/>
<path d="M247.073 276.833C272.177 276.833 292.529 256.482 292.529 231.378C292.529 206.273 272.177 185.922 247.073 185.922C221.969 185.922 201.617 206.273 201.617 231.378C201.617 256.482 221.969 276.833 247.073 276.833Z" fill="#63C3D4"/>
<path d="M342.494 273.516H412.33L404.301 322.044L332.052 321.217L342.494 273.516Z" fill="#A62D4D"/>
<path d="M394.949 325.761H408.942L418.988 281.859C419.825 278.184 417.529 274.529 413.859 273.692C410.188 272.851 406.533 275.146 405.692 278.817L396.135 320.579L394.949 325.761Z" fill="#EB3C3D"/>
<path d="M325.114 325.761H339.107L349.149 281.859C349.986 278.184 347.691 274.529 344.02 273.692C340.35 272.851 336.694 275.146 335.857 278.817L326.3 320.579L325.114 325.761Z" fill="#EB3C3D"/>
<path d="M258.75 105.963H272.387V121.115H258.75V105.963Z" fill="#925750"/>
<path d="M322.001 239.457L322.002 222.79C308.326 222.79 295.627 216.63 287.161 205.891C277.634 193.805 272.387 178.674 272.387 163.286V121.032H255.72V163.286C255.72 182.402 262.237 201.197 274.071 216.209C279.75 223.412 287.114 229.335 295.366 233.338C303.619 237.341 312.83 239.457 322.001 239.457Z" fill="#1A5968"/>
<path d="M255.72 114.296H272.387V121.115H255.72V114.296Z" fill="#FFEB9D"/>
<path d="M418.452 153.228L428.869 109.476L415.603 106.318L405.186 150.07L418.452 153.228Z" fill="#925750"/>
<path d="M429.391 116.008L428.68 119.014L428.57 119.479L427.095 119.131L427.207 118.662L427.916 115.66L429.391 116.008Z" fill="#925750"/>
<path d="M338.996 222.792V239.459C360.151 239.459 380.451 230.485 394.69 214.837C405.509 202.955 413.191 188.409 416.914 172.776L424.929 139.112L408.717 135.252L400.702 168.916C397.63 181.814 391.289 193.814 382.364 203.617C371.277 215.803 355.47 222.792 338.996 222.792Z" fill="#1A5968"/>
<path d="M315.661 222.824V270.453L338.26 237.434L348.268 222.82V222.816L342.169 215.244L327.252 219.759H318.684C317.846 219.759 317.096 220.1 316.551 220.645C316.002 221.191 315.665 221.949 315.665 222.782V222.824H315.661Z" fill="#FFEB9D"/>
<path d="M315.661 233.949V239.161L322.002 230.297C322.294 229.884 322.729 229.604 323.206 229.521C323.657 229.441 324.119 229.551 324.509 229.827L337.282 238.862L338.995 236.362L326.26 227.354C325.203 226.608 323.934 226.32 322.687 226.536C321.422 226.755 320.271 227.49 319.528 228.543L315.661 233.949Z" fill="#CFB13C"/>
<path d="M315.661 256.15V270.453L326.46 254.673L324.563 239.309L331.479 231.04L326.26 227.354C323.078 225.108 318.684 227.384 318.684 231.278V239.29L318.68 239.309L315.661 256.15Z" fill="#EA5E3F"/>
<path d="M318.68 239.309H324.563L331.48 231.04L326.26 227.354C323.078 225.108 318.684 227.385 318.684 231.279V239.29L318.68 239.309Z" fill="#DF3738"/>
<path d="M318.686 197.374V219.758L324.568 224.455L342.171 215.242V197.374H318.686Z" fill="#925750"/>
<path d="M302.057 226.521V315.52C302.057 318.668 304.606 321.217 307.754 321.217H356.346C359.494 321.217 362.047 318.668 362.047 315.52V226.521L348.323 222.828L348.266 222.817L338.259 237.434L315.66 270.454V222.817L302.057 226.521Z" fill="#1A5968"/>
<path d="M313.769 288.334C313.769 289.38 314.616 290.228 315.663 290.228C316.709 290.228 317.557 289.38 317.557 288.334C317.557 287.288 316.709 286.44 315.663 286.44C314.616 286.44 313.769 287.288 313.769 288.334Z" fill="#262763"/>
<path d="M313.769 299.887C313.769 300.933 314.616 301.781 315.663 301.781C316.709 301.781 317.557 300.933 317.557 299.887C317.557 298.84 316.709 297.993 315.663 297.993C314.616 297.993 313.769 298.84 313.769 299.887Z" fill="#262763"/>
<path d="M424.14 142.429L425.719 135.796L409.506 131.936L407.928 138.569L424.14 142.429Z" fill="#FFEB9D"/>
<path d="M268.167 109.772H262.259C258.075 109.772 254.683 106.38 254.683 102.196V88.4231H273.024V95.3968H279.085V103.238L274.861 107.149C273.04 108.835 270.649 109.772 268.167 109.772Z" fill="#B5746C"/>
<path d="M275.019 97.9514H254.681V88.4247H275.019V97.9514Z" fill="#497A84"/>
<path d="M254.683 97.9514H275.019V95.3968H273.024V88.4247H254.683V97.9514Z" fill="#A3655E"/>
<path d="M264.153 88.4421V92.1952C264.153 93.8687 265.509 95.2256 267.183 95.2256C268.856 95.2256 270.213 93.8687 270.213 92.1952V88.4421C270.213 86.7682 268.856 85.4117 267.183 85.4117C265.509 85.4117 264.153 86.7682 264.153 88.4421Z" fill="#925750"/>
<path d="M269.456 88.4421V92.1952C269.456 93.8687 270.812 95.2256 272.486 95.2256C274.16 95.2256 275.516 93.8687 275.516 92.1952V88.4421C275.516 86.7682 274.16 85.4117 272.486 85.4117C270.812 85.4117 269.456 86.7682 269.456 88.4421Z" fill="#925750"/>
<path d="M258.849 88.4421V92.1952C258.849 93.8687 260.206 95.2256 261.88 95.2256C263.553 95.2256 264.91 93.8687 264.91 92.1952V88.4421C264.91 86.7682 263.553 85.4117 261.88 85.4117C260.206 85.4117 258.849 86.7682 258.849 88.4421Z" fill="#925750"/>
<path d="M253.546 89.9573V92.1952C253.546 93.8687 254.903 95.2256 256.577 95.2256C258.25 95.2256 259.607 93.8687 259.607 92.1952V89.9573C259.607 88.2838 258.25 86.9269 256.577 86.9269C254.903 86.9269 253.546 88.2838 253.546 89.9573Z" fill="#925750"/>
<path d="M264.153 86.9266V90.6797C264.153 92.3536 265.509 93.7101 267.183 93.7101C268.856 93.7101 270.213 92.3536 270.213 90.6797V86.9266C270.213 85.2531 268.856 83.8962 267.183 83.8962C265.509 83.8962 264.153 85.2531 264.153 86.9266Z" fill="#B5746C"/>
<path d="M269.456 86.9266V90.6797C269.456 92.3536 270.812 93.7101 272.486 93.7101C274.16 93.7101 275.516 92.3536 275.516 90.6797V86.9266C275.516 85.2531 274.16 83.8962 272.486 83.8962C270.812 83.8962 269.456 85.2531 269.456 86.9266Z" fill="#B5746C"/>
<path d="M258.849 86.9266V90.6797C258.849 92.3536 260.206 93.7101 261.88 93.7101C263.553 93.7101 264.91 92.3536 264.91 90.6797V86.9266C264.91 85.2531 263.553 83.8962 261.88 83.8962C260.206 83.8962 258.849 85.2531 258.849 86.9266Z" fill="#B5746C"/>
<path d="M253.546 88.4422V90.6797C253.546 92.3536 254.903 93.7101 256.577 93.7101C258.25 93.7101 259.607 92.3536 259.607 90.6797V88.4422C259.607 86.7683 258.25 85.4118 256.577 85.4118C254.903 85.4118 253.546 86.7683 253.546 88.4422Z" fill="#B5746C"/>
<path d="M279.085 103.238V95.1927L270.968 87.0751L269.896 88.1471C268.123 89.9199 268.123 92.7987 269.896 94.5753L273.025 97.7041V97.9503L270.797 98.3708L270.676 98.3973C268.517 98.8026 266.642 99.9163 265.267 101.469C263.793 103.144 262.896 105.322 262.858 107.682L262.85 107.947H273.975L279.085 103.238Z" fill="#B5746C"/>
<path d="M263.607 107.969L263.615 107.704C263.649 105.591 264.438 103.558 265.835 101.97C267.15 100.485 268.873 99.5064 270.816 99.142L270.96 99.1106L273.783 98.578V97.3905L270.432 94.0396C268.956 92.5616 268.956 90.1581 270.432 88.6827L271.504 87.6107L270.433 86.5395L269.361 87.6115C267.295 89.6771 267.295 93.0411 269.36 95.1109L271.682 97.4325L270.514 97.6575C268.26 98.0799 266.241 99.2261 264.7 100.967C263.063 102.828 262.14 105.207 262.101 107.67L262.093 107.925L263.607 107.969Z" fill="#925750"/>
<path d="M416.566 128.369L422.285 129.853C426.334 130.904 430.47 128.474 431.521 124.424L434.981 111.092L417.228 106.484L415.476 113.235L409.609 111.712L407.64 119.301L410.745 124.149C412.084 126.238 414.163 127.746 416.566 128.369Z" fill="#B5746C"/>
<path d="M432.588 120.315L434.982 111.094L434.981 111.094L432.587 120.315L432.588 120.315ZM414.044 112.863L415.603 106.318L417.174 106.692L417.228 106.486L415.296 105.985L413.545 112.734L414.044 112.863Z" fill="#497A84"/>
<path d="M415.476 113.235L417.174 106.692L415.603 106.318L414.044 112.863L415.476 113.235Z" fill="#925750"/>
<path d="M432.587 120.315L434.981 111.094L417.228 106.486L417.174 106.692L415.476 113.235L414.045 112.863L413.545 112.734L412.903 115.206L432.587 120.315Z" fill="#A3655E"/>
<path d="M425.81 108.732L424.867 112.364C424.447 113.984 422.793 114.957 421.173 114.536C419.553 114.116 418.58 112.462 419.001 110.842L419.944 107.209C420.364 105.589 422.018 104.617 423.638 105.037C425.258 105.458 426.231 107.111 425.81 108.732Z" fill="#925750"/>
<path d="M420.677 107.399L419.734 111.032C419.314 112.652 417.66 113.625 416.04 113.204C414.42 112.784 413.448 111.129 413.868 109.51L414.811 105.877C415.231 104.257 416.885 103.285 418.505 103.705C420.125 104.125 421.098 105.779 420.677 107.399Z" fill="#925750"/>
<path d="M430.943 110.064L430.001 113.696C429.58 115.317 427.926 116.289 426.306 115.869C424.686 115.448 423.714 113.794 424.134 112.174L425.077 108.541C425.497 106.921 427.151 105.949 428.771 106.369C430.391 106.79 431.364 108.444 430.943 110.064Z" fill="#925750"/>
<path d="M435.696 112.863L435.134 115.029C434.713 116.649 433.059 117.621 431.439 117.201C429.819 116.78 428.847 115.126 429.267 113.506L429.829 111.34C430.25 109.72 431.904 108.748 433.524 109.168C435.144 109.589 436.116 111.243 435.696 112.863Z" fill="#925750"/>
<path d="M426.191 107.265L425.248 110.898C424.828 112.518 423.174 113.49 421.553 113.07C419.934 112.649 418.961 110.995 419.382 109.375L420.325 105.742C420.745 104.122 422.399 103.15 424.019 103.57C425.639 103.991 426.611 105.645 426.191 107.265Z" fill="#B5746C"/>
<path d="M421.058 105.933L420.115 109.565C419.695 111.185 418.04 112.158 416.42 111.737C414.801 111.317 413.828 109.663 414.249 108.043L415.191 104.41C415.612 102.79 417.266 101.818 418.886 102.238C420.506 102.659 421.478 104.313 421.058 105.933Z" fill="#B5746C"/>
<path d="M431.324 108.597L430.381 112.23C429.961 113.85 428.306 114.822 426.687 114.402C425.067 113.981 424.094 112.327 424.515 110.707L425.458 107.074C425.878 105.455 427.532 104.482 429.152 104.903C430.772 105.323 431.744 106.977 431.324 108.597Z" fill="#B5746C"/>
<path d="M436.076 111.396L435.514 113.562C435.094 115.182 433.44 116.154 431.82 115.734C430.2 115.314 429.227 113.659 429.648 112.04L430.21 109.874C430.63 108.254 432.285 107.281 433.904 107.702C435.524 108.122 436.497 109.776 436.076 111.396Z" fill="#B5746C"/>
<path d="M407.639 119.302L408.273 116.86L409.66 111.514L419.557 105.696L420.325 107.003C421.595 109.165 420.872 111.951 418.71 113.225L414.896 115.468L414.834 115.706L416.884 116.673L416.995 116.729C418.983 117.663 420.518 119.213 421.459 121.061C422.464 123.052 422.786 125.385 422.23 127.679L422.171 127.938L411.402 125.143L407.639 119.302Z" fill="#B5746C"/>
<path d="M422.909 128.107L422.968 127.848C423.547 125.464 423.251 122.929 422.135 120.719C421.079 118.645 419.414 117.029 417.316 116.043L417.227 115.997L416.263 115.542L419.094 113.878C421.614 112.393 422.459 109.138 420.978 106.619L420.21 105.312L418.903 106.08L419.671 107.387C420.729 109.186 420.126 111.512 418.326 112.573L414.241 114.974L413.943 116.123L416.651 117.404C418.462 118.256 419.883 119.636 420.784 121.405C421.737 123.291 421.989 125.457 421.494 127.501L421.432 127.769L422.909 128.107Z" fill="#925750"/>
<path d="M51.13 327.278H460.244C464.428 327.278 467.82 323.886 467.82 319.702C467.82 315.518 464.428 312.126 460.244 312.126H51.13C46.9481 312.126 43.5541 315.518 43.5541 319.702C43.5541 323.886 46.9481 327.278 51.13 327.278Z" fill="#FFCA3D"/>
<path d="M54.9179 331.864H456.456V327.318H54.9179V331.864Z" fill="#F09516"/>
<path d="M422.897 318.945H458.728C459.564 318.945 460.243 318.266 460.243 317.429C460.243 316.593 459.564 315.914 458.728 315.914H422.897C422.061 315.914 421.382 316.593 421.382 317.429C421.382 318.266 422.061 318.945 422.897 318.945Z" fill="white"/>
<path d="M406.885 318.945H415.078C415.915 318.945 416.593 318.266 416.593 317.429C416.593 316.593 415.915 315.914 415.078 315.914H406.885C406.048 315.914 405.37 316.593 405.37 317.429C405.37 318.266 406.048 318.945 406.885 318.945Z" fill="white"/>
<path d="M314.932 92.4082C318.941 92.4082 321.526 91.1896 322.616 88.7858C324.827 83.9069 318.897 76.7669 317.685 75.3847L314.266 78.3795C316.782 81.2591 319.129 85.4706 318.475 86.91C318.266 87.3706 317.226 87.8626 314.932 87.8626V92.4082Z" fill="#FFCA3D"/>
<path d="M379.951 121.254L384.465 120.716C383.741 114.645 379.749 114.162 377.364 113.874C375.408 113.637 375.189 113.476 374.946 112.762C374.551 111.601 374.823 110.838 375.379 109.48C376.114 107.686 377.224 104.974 374.322 101.833L370.983 104.919C371.92 105.932 371.806 106.211 371.172 107.758C370.543 109.295 369.681 111.401 370.643 114.228C371.855 117.786 374.962 118.162 376.819 118.386C378.994 118.649 379.65 118.729 379.951 121.254Z" fill="white"/>
<path d="M402.928 54.1202L399.355 51.3091C395.575 56.1138 398.056 59.2775 399.538 61.1677C400.755 62.7188 400.796 62.9867 400.462 63.6636C399.921 64.764 399.19 65.1113 397.836 65.6784C396.047 66.4276 393.344 67.5602 393.176 71.8334L397.719 72.0118C397.772 70.6334 398.05 70.5167 399.593 69.8709C401.124 69.2288 403.223 68.3496 404.541 65.67C406.2 62.2969 404.269 59.8343 403.115 58.3631C401.763 56.6388 401.355 56.1183 402.928 54.1202Z" fill="#00CC8D"/>
<path d="M460.454 208.732C460.616 208.673 460.777 208.609 460.94 208.539L459.142 204.364C458.414 204.677 457.773 204.755 457.437 204.567C457.031 204.341 456.693 203.551 456.531 202.455C456.311 200.956 455.654 199.987 454.577 199.576C452.921 198.943 451.597 200.048 450.534 200.935C449.239 202.016 448.477 202.519 447.908 202.262C447.61 202.128 447.603 200.897 447.597 199.998C447.583 197.712 447.555 192.956 441.644 192.4L441.219 196.926C442.898 197.084 443.035 197.315 443.052 200.026C443.064 202.035 443.083 205.071 446.037 206.404C448.707 207.61 450.993 206.332 452.53 205.164C453.084 206.716 453.984 207.846 455.221 208.536C456.703 209.364 458.546 209.429 460.454 208.732Z" fill="#FFCA3D"/>
<path d="M396.3 256.186C399.205 256.186 401.249 255.49 402.541 254.063C404.42 251.989 404.083 249.195 403.786 246.73C403.592 245.117 403.391 243.451 403.886 242.525C404.252 242.451 405.209 242.593 405.796 242.679C408.244 243.039 413.337 243.79 414.463 236.9L409.976 236.167C409.573 238.641 409.098 238.57 406.459 238.181C404.511 237.894 401.564 237.459 399.979 240.197C398.69 242.426 399 245.001 399.273 247.273C399.445 248.699 399.659 250.474 399.172 251.012C399.028 251.171 398.373 251.683 396.003 251.638L395.91 256.183C396.041 256.185 396.172 256.186 396.3 256.186Z" fill="#00CC8D"/>
<path d="M107.033 174.97C110.449 174.97 115.006 171.144 115.552 166.556L111.036 166.02C110.786 168.134 108.824 169.746 107.665 170.255C107.404 169.239 106.843 168.596 106.366 168.212C104.642 166.823 102.142 167.205 99.934 167.542C99.1613 167.66 97.9908 167.838 97.6233 167.766C97.6271 167.766 97.7748 167.797 97.968 167.942L95.2407 171.578C96.6574 172.641 98.5817 172.347 100.62 172.035C101.358 171.922 102.627 171.732 103.305 171.77C103.586 173.657 104.991 174.916 106.908 174.968C106.949 174.969 106.991 174.97 107.033 174.97Z" fill="#00CC8D"/>
<path d="M228.114 112.916C229.99 112.916 231.581 112.455 232.876 111.532C235.938 109.348 235.92 105.64 235.908 105.225L231.365 105.357L233.636 105.291L231.364 105.332C231.364 105.349 231.36 107.05 230.215 107.846C228.975 108.707 226.524 108.513 223.311 107.3L221.704 111.552C224.112 112.461 226.253 112.916 228.114 112.916Z" fill="#FF8B87"/>
<path d="M191.362 150.63C192.271 150.63 193.324 150.495 194.556 150.193L193.474 145.778C190.546 146.496 190.316 146.111 189.35 144.492C188.029 142.279 186.033 138.933 178.375 138.933V143.479C183.452 143.479 184.376 145.027 185.447 146.821C186.652 148.842 188.053 150.63 191.362 150.63Z" fill="#FFCA3D"/>
<path d="M247.508 50.9875C247.468 50.7519 247.443 49.9576 247.423 49.3193C247.305 45.5162 247.142 40.3077 243.766 39.0278C240.754 37.8857 237.864 40.9521 236.915 41.9593C235.503 43.4597 234.149 44.1135 233.203 43.7563C232.22 43.3847 231.468 41.9737 231.415 40.4009L226.872 40.5536C226.988 43.9885 228.887 46.9844 231.597 48.0087C233.212 48.6185 236.481 49.0447 240.223 45.0772C241.184 44.0567 241.811 43.6252 242.141 43.4453C242.73 44.6711 242.841 48.2212 242.88 49.4606C242.911 50.4758 242.934 51.2091 243.028 51.7561L247.508 50.9875Z" fill="#FFCA3D"/>
<path d="M151.372 114.432C151.808 114.432 152.268 114.398 152.755 114.325L152.085 109.829C149.969 110.145 149.293 109.234 147.898 105.706C146.963 103.342 145.904 100.664 143.173 99.8182C141.039 99.156 138.554 99.8526 135.353 102.011L137.894 105.78C140.64 103.928 141.654 104.105 141.828 104.16C142.478 104.361 143.139 106.034 143.671 107.378C144.736 110.071 146.461 114.432 151.372 114.432Z" fill="white"/>
<path d="M189.948 103.042C192.854 103.042 194.898 102.346 196.19 100.919C198.068 98.8443 197.732 96.0503 197.435 93.5855C197.241 91.9729 197.04 90.3062 197.534 89.3804C197.9 89.3066 198.858 89.4482 199.445 89.5342C201.893 89.8948 206.985 90.6456 208.111 83.7553L203.625 83.0231C203.221 85.4963 202.747 85.4258 200.108 85.0372C198.159 84.7493 195.213 84.3152 193.628 87.0531C192.338 89.2816 192.649 91.8566 192.922 94.1287C193.093 95.5552 193.307 97.3299 192.821 97.8678C192.677 98.0268 192.022 98.539 189.652 98.4935L189.558 103.038C189.69 103.041 189.82 103.042 189.948 103.042Z" fill="#00CC8D"/>
<path d="M312.75 142.279L297.368 186.045L299.533 197.448C299.718 198.413 299.967 199.367 300.27 200.288C302.375 206.607 307.399 211.704 313.713 213.923C317.984 215.424 322.554 215.555 326.924 214.297L341.916 209.981L347.61 208.344L353.999 190.166C354.478 190.94 355.122 191.619 355.901 192.144L366.756 161.261L312.75 142.279Z" fill="#26273C"/>
<path d="M312.463 170.15C311.263 173.565 307.521 175.361 304.106 174.161C300.691 172.96 298.895 169.219 300.095 165.803C301.296 162.388 305.037 160.592 308.453 161.793C311.868 162.993 313.664 166.735 312.463 170.15Z" fill="#B5746C"/>
<path d="M318.235 133.961L300.539 184.309L302.761 196.014C302.906 196.777 303.097 197.514 303.335 198.228C306.153 206.697 315.236 211.665 324.073 209.124L327.468 208.148L349.954 201.676L367.65 151.328L318.235 133.961Z" fill="#B5746C"/>
<path d="M306.905 166.197L351.764 181.964L353.312 177.559L308.453 161.793L306.905 166.197Z" fill="#925750"/>
<path d="M336.537 165.049L347.956 171.73L346.721 175.243L334.468 170.936L336.537 165.049Z" fill="#26273C"/>
<path d="M322.776 160.212L309.688 158.28L308.453 161.793L320.707 166.099L322.776 160.212Z" fill="#26273C"/>
<path d="M336.012 183.839L327.468 208.148L349.954 201.676L354.001 190.162L336.012 183.839Z" fill="#925750"/>
<path d="M328.286 197.362L323.955 209.687L349.638 202.294L353.969 189.969L328.286 197.362Z" fill="#44466B"/>
<path d="M304.586 172.794L300.539 184.309L302.761 196.014C302.906 196.777 303.097 197.513 303.335 198.228L311.429 175.199L304.586 172.794Z" fill="#925750"/>
<path d="M314.146 145.596L311.867 144.794L300.395 177.434L302.674 178.235L314.146 145.596Z" fill="#26273C"/>
<path d="M353.377 184.53C352.691 186.482 352.984 188.538 353.998 190.166C354.477 190.94 355.121 191.619 355.901 192.144C356.353 192.448 356.849 192.699 357.388 192.889C360.805 194.09 364.547 192.291 365.746 188.878C366.947 185.461 365.152 181.72 361.735 180.52C361.196 180.33 360.652 180.215 360.109 180.17C359.174 180.088 358.247 180.215 357.389 180.519C355.578 181.158 354.063 182.579 353.377 184.53Z" fill="#F4A989"/>
<path d="M303.625 175.53L300.541 184.304L301.824 191.064L306.407 190.192L303.625 175.53Z" fill="#44466B"/>
<path d="M323.009 181.543L329.6 183.86C332.752 184.967 334.892 187.907 334.977 191.247L335.414 208.327L311.991 212.892L323.009 181.543Z" fill="#26273C"/>
<path d="M323.009 181.543L316.912 179.401C313.521 178.208 309.751 179.41 307.674 182.343L300.69 192.211C299.372 194.072 299.423 196.577 300.815 198.384L311.991 212.892L323.009 181.543Z" fill="#26273C"/>
<path d="M311.845 184.851L312.771 191.854C313.002 193.594 314.19 195.057 315.846 195.639L319.778 197.021C321.434 197.603 323.276 197.205 324.544 195.992L329.648 191.108L311.845 184.851Z" fill="white"/>
<path d="M359.888 158.847L341.916 209.981L347.61 208.344L364.444 160.448L359.888 158.847Z" fill="#26273C"/>
<path d="M339.601 129.395L353.87 134.41C364.843 138.266 370.612 150.288 366.755 161.26L312.751 142.28C316.607 131.307 328.629 125.538 339.601 129.395Z" fill="#26273C"/>
<path d="M315.029 143.08L359.888 158.847L361.777 153.473L316.918 137.707L315.029 143.08Z" fill="#26273C"/>
<path d="M340.949 180.592L343.211 180.367C342.973 177.97 341.353 175.905 339.082 175.107C336.81 174.31 334.255 174.907 332.57 176.627L334.194 178.217C335.265 177.124 336.888 176.745 338.328 177.251C339.769 177.758 340.798 179.069 340.949 180.592Z" fill="#221C54"/>
<path d="M316.365 171.951L318.626 171.727C318.388 169.33 316.768 167.265 314.497 166.467C312.225 165.669 309.67 166.265 307.986 167.987L309.61 169.577C310.68 168.484 312.303 168.105 313.744 168.611C315.185 169.118 316.213 170.429 316.365 171.951Z" fill="#221C54"/>
<path d="M304.746 168.681C304.524 170.032 305.3 171.341 306.591 171.795L315.913 175.071C317.224 175.532 318.698 174.951 319.342 173.72L322.922 166.88L306.017 160.938L304.798 168.365L304.746 168.681ZM329.86 177.417C329.593 178.78 330.379 180.156 331.69 180.616L341.011 183.892C342.302 184.346 343.727 183.81 344.399 182.618L348.252 175.782L331.346 169.841L329.86 177.417ZM302.398 157.107L362.646 178.282C364.948 179.091 366.163 181.623 365.354 183.926L363.848 188.211L361.57 187.41L363.076 183.125C363.444 182.078 362.891 180.928 361.845 180.56L355.725 178.409C352.736 177.358 349.438 178.599 347.882 181.358L347.882 181.358L346.503 183.803C345.255 186.018 342.609 187.013 340.211 186.17L330.89 182.894C328.455 182.039 326.994 179.484 327.491 176.952L328.575 171.425L324.093 169.85L321.481 174.84C320.284 177.126 317.546 178.204 315.112 177.349L305.791 174.073C303.393 173.23 301.951 170.798 302.363 168.29L303.375 162.122C303.565 160.965 302.9 159.843 301.794 159.454L301.597 159.385L302.397 157.107L302.398 157.107Z" fill="#0E0F2D"/>
<path d="M353.384 184.514C352.184 187.929 353.98 191.671 357.395 192.871C360.81 194.072 364.552 192.276 365.752 188.861C366.953 185.445 365.157 181.704 361.742 180.503C358.326 179.303 354.585 181.098 353.384 184.514Z" fill="#B5746C"/>
<path d="M209.618 240.211H242.041V223.544H209.618V240.211Z" fill="#925750"/>
<path d="M219.593 240.211H226.411V223.544H219.593V240.211Z" fill="#FFEB9D"/>
<path d="M187.281 240.211H219.593V223.544H187.281V240.211Z" fill="#4E346B"/>
<path d="M231.578 229.458V234.575C231.578 238.761 234.972 242.151 239.154 242.151H254.48V223.81H247.506V217.749H239.665L233.593 224.31C232.298 225.711 231.578 227.549 231.578 229.458Z" fill="#B5746C"/>
<path d="M250.69 221.816H241.164V242.153H250.69V221.816Z" fill="#A6635C"/>
<path d="M219.009 297.256H275.033L273.283 286.04C265.351 289.855 256.46 291.987 247.074 291.987C237.649 291.987 228.725 289.836 220.766 285.994L219.009 297.256Z" fill="#EB9827"/>
<path d="M220.766 285.994C228.725 289.836 237.649 291.987 247.074 291.987C256.46 291.987 265.351 289.855 273.283 286.04L270.495 268.172C269.438 261.395 266.112 255.176 261.059 250.536L250.983 241.278L249.949 227.323L257.491 213.36L242.058 210.89L237.373 210.14L244.089 227.323H244.093L243.058 241.278L232.982 250.536C227.929 255.176 224.603 261.395 223.547 268.172L220.766 285.994Z" fill="#FFAB38"/>
<path d="M254.461 232.682H250.708C249.034 232.682 247.678 231.325 247.678 229.652C247.678 227.978 249.034 226.621 250.708 226.621H254.461C256.135 226.621 257.492 227.978 257.492 229.652C257.492 231.325 256.135 232.682 254.461 232.682Z" fill="#925750"/>
<path d="M254.461 227.379H250.708C249.034 227.379 247.678 226.022 247.678 224.349C247.678 222.675 249.034 221.318 250.708 221.318H254.461C256.135 221.318 257.492 222.675 257.492 224.349C257.492 226.022 256.135 227.379 254.461 227.379Z" fill="#925750"/>
<path d="M254.461 237.985H250.708C249.034 237.985 247.678 236.628 247.678 234.955C247.678 233.281 249.034 231.924 250.708 231.924H254.461C256.135 231.924 257.492 233.281 257.492 234.955C257.492 236.628 256.135 237.985 254.461 237.985Z" fill="#925750"/>
<path d="M252.946 243.288H250.708C249.034 243.288 247.678 241.931 247.678 240.258C247.678 238.584 249.034 237.228 250.708 237.228H252.946C254.62 237.228 255.976 238.584 255.976 240.258C255.976 241.931 254.62 243.288 252.946 243.288Z" fill="#925750"/>
<path d="M255.976 232.682H252.223C250.55 232.682 249.193 231.325 249.193 229.652C249.193 227.978 250.55 226.621 252.223 226.621H255.976C257.65 226.621 259.007 227.978 259.007 229.652C259.007 231.325 257.65 232.682 255.976 232.682Z" fill="#B5746C"/>
<path d="M255.976 227.379H252.223C250.55 227.379 249.193 226.022 249.193 224.349C249.193 222.675 250.55 221.318 252.223 221.318H255.976C257.65 221.318 259.007 222.675 259.007 224.349C259.007 226.022 257.65 227.379 255.976 227.379Z" fill="#B5746C"/>
<path d="M255.976 237.985H252.223C250.55 237.985 249.193 236.628 249.193 234.955C249.193 233.281 250.55 231.924 252.223 231.924H255.976C257.65 231.924 259.007 233.281 259.007 234.955C259.007 236.628 257.65 237.985 255.976 237.985Z" fill="#B5746C"/>
<path d="M254.461 243.288H252.223C250.55 243.288 249.193 241.931 249.193 240.258C249.193 238.584 250.55 237.228 252.223 237.228H254.461C256.135 237.228 257.492 238.584 257.492 240.258C257.492 241.931 256.135 243.288 254.461 243.288Z" fill="#B5746C"/>
<path d="M239.665 217.749H247.71L255.828 225.867L254.756 226.939C252.983 228.712 250.104 228.712 248.328 226.939L245.199 223.81H244.953L244.533 226.037L244.506 226.158C244.101 228.318 242.987 230.193 241.434 231.568C239.76 233.041 237.582 233.939 235.222 233.977L234.957 233.984V222.859L239.665 217.749Z" fill="#B5746C"/>
<path d="M234.978 234.742L235.243 234.734C237.696 234.695 240.076 233.772 241.935 232.136C243.677 230.594 244.823 228.576 245.251 226.298L245.273 226.2L245.47 225.152L247.792 227.474C249.863 229.541 253.227 229.539 255.292 227.474L256.364 226.402L255.293 225.331L254.221 226.403C252.745 227.879 250.342 227.878 248.863 226.402L245.513 223.052H244.325L243.766 225.996C243.397 227.962 242.418 229.685 240.932 231.001C239.345 232.397 237.312 233.185 235.21 233.219L234.936 233.227L234.978 234.742Z" fill="#925750"/>
<path d="M248.429 280.282C249.24 280.233 249.968 280.156 250.613 280.051C251.257 279.945 251.835 279.824 252.346 279.686C252.856 279.548 253.313 279.402 253.714 279.248C254.116 279.094 254.478 278.94 254.802 278.786V273.836H251.142C250.72 274.42 250.244 274.85 249.713 275.125C249.181 275.401 248.636 275.538 248.076 275.538C247.931 275.538 247.769 275.526 247.59 275.502C247.412 275.478 247.243 275.409 247.086 275.295C246.927 275.182 246.794 275.003 246.684 274.76C246.575 274.517 246.52 274.176 246.52 273.738C247.217 273.673 247.909 273.58 248.594 273.459C249.279 273.337 249.934 273.171 250.558 272.96C251.183 272.749 251.764 272.484 252.303 272.164C252.842 271.843 253.309 271.456 253.702 271.002C254.095 270.548 254.403 270.015 254.626 269.403C254.849 268.79 254.961 268.083 254.961 267.28C254.961 266.113 254.78 265.134 254.419 264.343C254.058 263.552 253.576 262.906 252.972 262.403C252.368 261.9 251.673 261.524 250.886 261.272C250.1 261.021 249.281 260.85 248.429 260.761V256.492H244.538V260.786C243.848 260.858 243.226 260.95 242.671 261.059C242.115 261.169 241.619 261.286 241.18 261.412C240.743 261.538 240.358 261.669 240.025 261.807C239.693 261.945 239.397 262.079 239.138 262.208V267.159H242.798C243.212 266.575 243.672 266.145 244.179 265.87C244.685 265.594 245.206 265.456 245.742 265.456C245.887 265.456 246.054 265.474 246.24 265.51C246.427 265.547 246.601 265.632 246.764 265.766C246.925 265.9 247.064 266.094 247.176 266.35C247.29 266.605 247.347 266.952 247.347 267.39C245.928 267.438 244.68 267.592 243.601 267.852C242.523 268.111 241.625 268.503 240.907 269.026C240.19 269.548 239.648 270.217 239.283 271.032C238.919 271.847 238.736 272.83 238.736 273.982C238.736 274.979 238.892 275.835 239.204 276.548C239.517 277.261 239.938 277.861 240.469 278.348C241.001 278.834 241.617 279.218 242.318 279.497C243.02 279.777 243.759 279.982 244.538 280.112V284.526H248.429V280.282Z" fill="white"/>
<path d="M272.445 229.484H283.629V227.968H272.445V229.484Z" fill="white"/>
<path d="M221.586 215.856L222.343 214.543L213.877 209.655L213.119 210.968L221.586 215.856Z" fill="white"/>
<path d="M231.21 205.677L232.523 204.919L219.849 182.968L218.536 183.725L231.21 205.677Z" fill="white"/>
<path d="M244.635 201.673H246.15V187.349H244.635V201.673Z" fill="white"/>
<path d="M259.575 205.677L275.408 178.254L274.095 177.496L258.263 204.919L259.575 205.677Z" fill="white"/>
<path d="M269.2 215.856L287.979 205.014L287.221 203.701L268.442 214.543L269.2 215.856Z" fill="white"/>
<path d="M183.063 202.351L195.962 289.258C196.242 291.137 197.859 292.489 199.704 292.489C199.89 292.489 200.079 292.474 200.265 292.447C202.337 292.141 203.765 290.213 203.458 288.144L190.556 201.237C190.276 199.358 188.666 198.006 186.818 198.006C186.632 198.006 186.442 198.017 186.253 198.048C184.185 198.354 182.757 200.279 183.063 202.351Z" fill="white"/>
<path d="M87.2709 202.351L100.169 289.258C100.449 291.137 102.067 292.489 103.911 292.489H199.704C197.859 292.489 196.242 291.137 195.962 289.258L183.063 202.351C182.757 200.279 184.185 198.354 186.253 198.048C186.442 198.017 186.632 198.006 186.817 198.006H91.0248C90.8392 198.006 90.6498 198.017 90.4604 198.048C88.3922 198.354 86.9603 200.283 87.2709 202.351Z" fill="#C3E3F5"/>
<path d="M134.618 292.489H152.694V247.518H134.618V292.489Z" fill="#262763"/>
<path d="M106.279 305.444C109.18 309.629 113.949 312.125 119.04 312.125H178.805V307.58H151.66C148.528 307.58 145.539 306.239 143.455 303.898C141.372 301.553 140.387 298.428 140.751 295.315L146.357 247.518H152.694L152.69 242.972H122.529L104.495 291.152C102.711 295.917 103.377 301.262 106.279 305.444Z" fill="#B7D5E6"/>
<path d="M151.662 312.125H178.803V307.58H151.662C148.529 307.58 145.537 306.237 143.455 303.896C141.372 301.555 140.387 298.427 140.752 295.316L146.357 247.52L152.693 247.518L152.692 242.972L142.313 242.975L136.237 294.786C135.721 299.186 137.114 303.607 140.058 306.917C143.002 310.227 147.232 312.125 151.662 312.125Z" fill="white"/>
<path d="M163.935 215.203L166.576 232.984H168.106L165.47 215.203H163.935Z" fill="#262763"/>
<path d="M158.879 215.203L161.519 232.984H163.049L160.409 215.203H158.879Z" fill="#262763"/>
<path d="M153.818 215.203L156.458 232.984H157.992L155.352 215.203H153.818Z" fill="#262763"/>
<path d="M148.761 215.203L151.401 232.984H152.932L150.295 215.203H148.761Z" fill="#262763"/>
<path d="M143.704 215.203L146.344 232.984H147.875L145.234 215.203H143.704Z" fill="#262763"/>
<path d="M138.643 215.203L141.284 232.984H142.818L140.177 215.203H138.643Z" fill="#262763"/>
<path d="M133.586 215.203L136.226 232.984H137.757L135.12 215.203H133.586Z" fill="#262763"/>
<path d="M128.529 215.203L131.17 232.984H132.7L130.06 215.203H128.529Z" fill="#262763"/>
<path d="M123.469 215.203L126.109 232.984H127.643L125.003 215.203H123.469Z" fill="#262763"/>
<path d="M118.412 215.203L121.052 232.984H122.582L119.946 215.203H118.412Z" fill="#262763"/>
<path d="M113.355 215.203L115.995 232.984H117.525L114.885 215.203H113.355Z" fill="#262763"/>
<path d="M108.294 215.203L110.934 232.984H112.468L109.828 215.203H108.294Z" fill="#262763"/>
</g>
<defs>
<clipPath id="clip0_24_56">
<rect width="511.375" height="363.644" fill="white" transform="matrix(-1 0 0 1 511.375 0)"/>
</clipPath>
</defs>
</svg>
