<svg width="170" height="170" viewBox="0 0 170 170" fill="none" xmlns="http://www.w3.org/2000/svg">
<g filter="url(#filter0_d_24_49)">
<rect x="6" y="2" width="150" height="150" rx="20" fill="#B271F0"/>
</g>
<g clip-path="url(#clip0_24_49)">
<path d="M86.2996 58.5346L99.4362 71.6625L75.6654 95.4333L62.5375 82.2967L86.2996 58.5346ZM77.5321 99.2046L103.199 73.5379C103.448 73.2952 103.646 73.0051 103.782 72.6846C103.917 72.3641 103.987 72.0198 103.987 71.6719C103.987 71.324 103.918 70.9795 103.783 70.6588C103.648 70.3381 103.451 70.0477 103.202 69.8046L88.1633 54.7662C87.6603 54.286 86.9915 54.0183 86.2961 54.0188C85.6006 54.0194 84.9322 54.2881 84.43 54.7692L58.7633 80.4358C58.5141 80.6786 58.3159 80.9687 58.1805 81.2892C58.0451 81.6096 57.9752 81.954 57.975 82.3019C57.9747 82.6498 58.0441 82.9942 58.1789 83.3149C58.3138 83.6356 58.5115 83.9261 58.7604 84.1692L73.7987 99.2075C74.3017 99.6878 74.9706 99.9555 75.666 99.9549C76.3614 99.9544 77.0299 99.6856 77.5321 99.2046ZM114.466 72.7417L76.7883 110.463C75.82 111.414 74.4929 112 73.0287 112C71.5646 112 70.2375 111.414 69.2692 110.463L64.0367 105.233C65.4977 103.727 66.3076 101.706 66.2914 99.6078C66.2752 97.5093 65.4343 95.5014 63.9502 94.0177C62.4661 92.534 60.458 91.6936 58.3595 91.678C56.261 91.6623 54.2406 92.4727 52.7346 93.9342L52.7375 93.9313L47.5429 88.6987C46.5921 87.7304 46.0058 86.4033 46.0058 84.9392C46.0058 83.475 46.5921 82.1479 47.5429 81.1796L85.2233 43.5371C86.1917 42.5863 87.5187 42 88.9829 42C90.4471 42 91.7742 42.5863 92.7425 43.5371L97.9371 48.7317C97.168 49.4675 96.5537 50.3495 96.1302 51.3259C95.7066 52.3023 95.4824 53.3535 95.4707 54.4178C95.4589 55.4821 95.6599 56.538 96.0617 57.5235C96.4636 58.5091 97.0583 59.4044 97.8109 60.157C98.5635 60.9096 99.4588 61.5043 100.444 61.9062C101.43 62.308 102.486 62.509 103.55 62.4972C104.614 62.4855 105.666 62.2613 106.642 61.8377C107.618 61.4142 108.5 60.7999 109.236 60.0308L109.239 60.0279L114.472 65.2225C115.422 66.1908 116.009 67.5179 116.009 68.9821C116.009 70.4463 115.422 71.7733 114.472 72.7417H114.466Z" fill="white"/>
</g>
<defs>
<filter id="filter0_d_24_49" x="0" y="0" width="170" height="170" filterUnits="userSpaceOnUse" color-interpolation-filters="sRGB">
<feFlood flood-opacity="0" result="BackgroundImageFix"/>
<feColorMatrix in="SourceAlpha" type="matrix" values="0 0 0 0 0 0 0 0 0 0 0 0 0 0 0 0 0 0 127 0" result="hardAlpha"/>
<feOffset dx="4" dy="8"/>
<feGaussianBlur stdDeviation="5"/>
<feComposite in2="hardAlpha" operator="out"/>
<feColorMatrix type="matrix" values="0 0 0 0 0 0 0 0 0 0 0 0 0 0 0 0 0 0 0.25 0"/>
<feBlend mode="normal" in2="BackgroundImageFix" result="effect1_dropShadow_24_49"/>
<feBlend mode="normal" in="SourceGraphic" in2="effect1_dropShadow_24_49" result="shape"/>
</filter>
<clipPath id="clip0_24_49">
<rect width="70" height="70" fill="white" transform="translate(46 42)"/>
</clipPath>
</defs>
</svg>
