<svg width="209" height="38" viewBox="0 0 209 38" fill="none" xmlns="http://www.w3.org/2000/svg">
<path d="M3 16.5C1.61929 16.5 0.5 17.6193 0.5 19C0.5 20.3807 1.61929 21.5 3 21.5V16.5ZM207.768 20.7678C208.744 19.7915 208.744 18.2085 207.768 17.2322L191.858 1.32233C190.882 0.34602 189.299 0.34602 188.322 1.32233C187.346 2.29864 187.346 3.88155 188.322 4.85786L202.464 19L188.322 33.1421C187.346 34.1184 187.346 35.7014 188.322 36.6777C189.299 37.654 190.882 37.654 191.858 36.6777L207.768 20.7678ZM3 21.5H206V16.5H3V21.5Z" fill="url(#paint0_linear_24_45)"/>
<defs>
<linearGradient id="paint0_linear_24_45" x1="3" y1="19" x2="206" y2="19" gradientUnits="userSpaceOnUse">
<stop stop-color="#B271F0"/>
<stop offset="1" stop-color="#259EB1"/>
</linearGradient>
</defs>
</svg>
