<svg xmlns="http://www.w3.org/2000/svg" xmlns:xlink="http://www.w3.org/1999/xlink" viewBox="0 0 800 264.89"><defs><style>.cls-1{fill:url(#linear-gradient);}.cls-2{fill:url(#linear-gradient-2);}.cls-3{fill:url(#linear-gradient-3);}.cls-4{fill:url(#linear-gradient-4);}.cls-5{fill:url(#linear-gradient-5);}.cls-6{fill:url(#linear-gradient-6);}.cls-7{fill:url(#linear-gradient-7);}.cls-8{fill:url(#linear-gradient-8);}.cls-9{fill:url(#linear-gradient-9);}.cls-10{fill:url(#linear-gradient-10);}.cls-11{fill:url(#linear-gradient-11);}.cls-12{fill:url(#linear-gradient-12);}.cls-13{fill:url(#linear-gradient-13);}.cls-14{fill:url(#linear-gradient-14);}.cls-15{fill:url(#linear-gradient-15);}.cls-16{fill:url(#linear-gradient-16);}.cls-17{fill:url(#linear-gradient-17);}.cls-18{fill:url(#linear-gradient-18);}.cls-19{fill:url(#linear-gradient-19);}.cls-20{fill:url(#linear-gradient-20);}.cls-21{fill:url(#linear-gradient-21);}.cls-22{fill:url(#linear-gradient-22);}.cls-23{fill:url(#linear-gradient-23);}.cls-24{fill:url(#linear-gradient-24);}.cls-25{fill:url(#linear-gradient-25);}.cls-26{fill:url(#linear-gradient-26);}.cls-27{fill:url(#linear-gradient-27);}.cls-28{fill:url(#linear-gradient-28);}</style><linearGradient id="linear-gradient" x1="254.4" y1="168.04" x2="356.88" y2="168.04" gradientUnits="userSpaceOnUse"><stop offset="0" stop-color="#e6a723"/><stop offset="0" stop-color="#e9b71f"/><stop offset="1" stop-color="#b67e2b"/></linearGradient><linearGradient id="linear-gradient-2" x1="341.38" y1="178.96" x2="428.51" y2="178.96" xlink:href="#linear-gradient"/><linearGradient id="linear-gradient-3" x1="436.09" y1="168.04" x2="530.09" y2="168.04" xlink:href="#linear-gradient"/><linearGradient id="linear-gradient-4" x1="537.09" y1="178.96" x2="623.54" y2="178.96" xlink:href="#linear-gradient"/><linearGradient id="linear-gradient-5" x1="619.6" y1="168.04" x2="730.18" y2="168.04" xlink:href="#linear-gradient"/><linearGradient id="linear-gradient-6" x1="712.88" y1="178.96" x2="800" y2="178.96" xlink:href="#linear-gradient"/><linearGradient id="linear-gradient-7" x1="110.54" y1="191.99" x2="199.12" y2="191.99" xlink:href="#linear-gradient"/><linearGradient id="linear-gradient-8" x1="0" y1="191.99" x2="88.58" y2="191.99" xlink:href="#linear-gradient"/><linearGradient id="linear-gradient-9" x1="14.77" y1="119.69" x2="184.36" y2="119.69" xlink:href="#linear-gradient"/><linearGradient id="linear-gradient-10" x1="103.89" y1="54.84" x2="158.57" y2="54.84" xlink:href="#linear-gradient"/><linearGradient id="linear-gradient-11" x1="18.53" y1="44.11" x2="101.86" y2="44.11" xlink:href="#linear-gradient"/><linearGradient id="linear-gradient-12" x1="303.18" y1="213.85" x2="303.18" y2="119.49" gradientUnits="userSpaceOnUse"><stop offset="0" stop-color="#dead26"/><stop offset="0.28" stop-color="#f3e37e"/><stop offset="0.33" stop-color="#f0dd79"/><stop offset="0.4" stop-color="#e6cd6c"/><stop offset="0.48" stop-color="#d6b356"/><stop offset="0.57" stop-color="#c08e38"/><stop offset="0.6" stop-color="#b77f2b"/><stop offset="0.73" stop-color="#cda348"/><stop offset="0.98" stop-color="#fbf288"/></linearGradient><linearGradient id="linear-gradient-13" x1="382.48" y1="214.93" x2="382.48" y2="140.25" xlink:href="#linear-gradient-12"/><linearGradient id="linear-gradient-14" x1="480.63" y1="213.85" x2="480.63" y2="119.49" xlink:href="#linear-gradient-12"/><linearGradient id="linear-gradient-15" x1="577.85" y1="214.93" x2="577.85" y2="140.25" xlink:href="#linear-gradient-12"/><linearGradient id="linear-gradient-16" x1="672.43" y1="213.85" x2="672.43" y2="119.49" xlink:href="#linear-gradient-12"/><linearGradient id="linear-gradient-17" x1="753.98" y1="214.93" x2="753.98" y2="140.25" xlink:href="#linear-gradient-12"/><linearGradient id="linear-gradient-18" x1="192.93" y1="177.89" x2="1.27" y2="177.89" gradientUnits="userSpaceOnUse"><stop offset="0" stop-color="#dead26"/><stop offset="0.22" stop-color="#f3e37e"/><stop offset="0.26" stop-color="#f0dd79"/><stop offset="0.32" stop-color="#e6cd6c"/><stop offset="0.38" stop-color="#d6b356"/><stop offset="0.45" stop-color="#c08e38"/><stop offset="0.47" stop-color="#b77f2b"/><stop offset="0.62" stop-color="#d0a94d"/><stop offset="0.77" stop-color="#e7d16d"/><stop offset="0.9" stop-color="#f6e981"/><stop offset="0.98" stop-color="#fbf288"/></linearGradient><linearGradient id="linear-gradient-19" x1="19.8" y1="42.74" x2="95.67" y2="42.74" xlink:href="#linear-gradient"/><linearGradient id="linear-gradient-20" x1="105.16" y1="53.47" x2="152.37" y2="53.47" xlink:href="#linear-gradient"/><linearGradient id="linear-gradient-21" x1="254.4" y1="166.67" x2="351.96" y2="166.67" gradientUnits="userSpaceOnUse"><stop offset="0" stop-color="#fbf288"/><stop offset="1" stop-color="#fbf288"/></linearGradient><linearGradient id="linear-gradient-22" x1="341.38" y1="177.59" x2="423.59" y2="177.59" xlink:href="#linear-gradient-21"/><linearGradient id="linear-gradient-23" x1="436.09" y1="166.67" x2="525.17" y2="166.67" xlink:href="#linear-gradient-21"/><linearGradient id="linear-gradient-24" x1="537.09" y1="177.59" x2="618.62" y2="177.59" xlink:href="#linear-gradient-21"/><linearGradient id="linear-gradient-25" x1="619.6" y1="166.67" x2="725.26" y2="166.67" xlink:href="#linear-gradient-21"/><linearGradient id="linear-gradient-26" x1="712.88" y1="177.59" x2="795.08" y2="177.59" xlink:href="#linear-gradient-21"/><linearGradient id="linear-gradient-27" x1="0" y1="177.89" x2="194.2" y2="177.89" xlink:href="#linear-gradient-21"/><linearGradient id="linear-gradient-28" x1="18.53" y1="42.74" x2="153.64" y2="42.74" xlink:href="#linear-gradient-21"/></defs><g id="Layer_2" data-name="Layer 2"><g id="Layer_1-2" data-name="Layer 1"><path class="cls-1" d="M356.72,121.61a1.27,1.27,0,0,0-.48-.47l0,0h0l0,0h-.05l0,0h0l0,0h0l0,0h-.05l0,0h-.05l0,0h0l0,0h-.05l0,0h-.05l0,0h-.05l0,0h0l0,0h-.05l0,0h-.05l0,0h0l0,0h0l0,0h0l0,0h-.05l0,0h0l0,0h0l0,0h-.05l0,0h-.05l0,0h0l0,0h-.05l0,0h-.05l0,0h-.05l0,0h0l0,0h-.05l0,0h0l0,0h0l0,0h0l0,0h0l0,0h-.05l0,0h0l0,0H354l0,0h-.05l0,0h0l0,0h0l0,0h-.05l0,0h-.05l0,0h-.05l0,0h0l0,0h-.05l0,0h0l0,0h-.05l0,0h0l0,0h-.05l0,0h-.05l0,0h0l0,0H353l0,0h0l0,0h-.05l0,0h0l0,0h-.05l0,0h0l0,0h0l0,0h0l0,0h-.05l0,0h0l0,0h-.05l0,0h0l0,0h-.05l0,0h-.05l0,0h0l0,0h0l0,0h-.05l0,0h-.05l0,0h0l0,0h0l0,0h-.05l0,0h0l0,0h0l0,0h-.05l0,0h-.05a1.21,1.21,0,0,0-.65-.19H329.26a1.29,1.29,0,0,0-1.09.62l-22.48,37.39-20.83-34.65a1.38,1.38,0,0,0-.48-.45h0l0,0h0l0,0h0l0,0h0l0,0h-.05l0,0h0l0,0H284l0,0h-.05l0,0h0l0,0h-.05l0,0h-.05l0,0h-.05l0,0h0l0,0h-.05l0,0h0l0,0h0l0,0h0l0,0h0l0,0h0l0,0h-.05l0,0h0l0,0H283l0,0h-.05l0,0h0l0,0h-.05l0,0h-.05l0,0h-.05l0,0h0l0,0h0l0,0h-.05l0,0h0l0,0h0l0,0h0l0,0h-.05l0,0h-.05l0,0h0l0,0H282l0,0h-.05l0,0h-.05l0,0h0l0,0h-.05l0,0h-.05l0,0h0l0,0h-.05l0,0h-.05l0,0h-.05l0,0h0l0,0h0l0,0h-.05l0,0h0l0,0h0l0,0H281l0,0h-.05l0,0h-.05l0,0h0l0,0h-.05l0,0h-.05l0,0h0l0,0h-.05l0,0h0l0,0h-.05l0,0h0l0,0h0l0,0h0l0,0h-.05l0,0h0l0,0H280l0,0h0l0,0h-.05l0,0h0l0,0h-.05l0,0h-.05l0,0h0l0,0h0a1.25,1.25,0,0,0-.63-.18H255.67a1.27,1.27,0,0,0-1.11.65,1.25,1.25,0,0,0,0,1.28l36.34,60.35v33.35a1.28,1.28,0,0,0,.78,1.17l0,0h0l0,0h.05l0,0h0l0,0h0l0,0h.05l0,0h.05l0,0h0s0,0,0,0h.05l0,0h.05l0,0h.05l0,0h0l0,0h.05l0,0h0s0,0,0,0h.05l0,0h0l0,0h0l0,0h.05l0,0h0l0,0H293l0,0h.05l0,0h0l0,0h0l0,0h.05l0,0h.05l0,0h.05l0,0h0l0,0h0l0,0h0l0,0h.05l0,0h0l0,0h.05l0,0h.05l0,0h.05l0,0h0l0,0h0l0,0h.05l0,0h0l0,0h.05l0,0h0l0,0h0l0,0h0l0,0h0s0,0,0,0h0l0,0h.05l0,0h0s0,0,0,0h.05l0,0h.05l0,0h.05s0,0,0,0h0s0,0,0,0h.05l0,0h.05l0,0h0l0,0h0l0,0h.05l0,0h0l0,0h0l0,0h0l0,0h.05l0,0h.05l0,0h0l0,0h.05l0,0h.05l0,0h.05s0,0,0,0h0l0,0h.05l0,0h.05l0,0h0l0,0h.05l0,0h.05l0,0h0l0,0h0l0,0h0l0,0h.05a1.27,1.27,0,0,0,.51.12H319a1.27,1.27,0,0,0,1.27-1.27V183.52l36.48-60.63A1.25,1.25,0,0,0,356.72,121.61Z"/><path class="cls-2" d="M408.56,146.66h-.16l0,0h-.05l0,0h-.18v0h-.26v0h-.18l0,0h-.25l0,0h-.05l0,0h-.18l0,0h-.25l0,0h-.18v0h-.26v0h-.25l0,0h-.25l0,0h-.18l0,0h-.25l0,0h-.25l0,0h-.25l0,0h-.17l0,0h-.25l0,0h-.25l0,0h-.25l0,0h-.2A44.46,44.46,0,0,0,382.55,139a45,45,0,0,0-21.15,4.93,37,37,0,0,0-14.71,13.75,40.06,40.06,0,0,0,0,39.86,37,37,0,0,0,14.71,13.75h4.92a47.68,47.68,0,0,0,42.23,0,37.1,37.1,0,0,0,14.65-13.74,40.08,40.08,0,0,0,0-39.87A37.21,37.21,0,0,0,408.56,146.66ZM375,194.08c-3.25-3.38-4.9-8-4.9-13.75s1.65-10.36,4.9-13.74a16.38,16.38,0,0,1,12.43-5.07,18.41,18.41,0,0,1,5.94.93,17.64,17.64,0,0,1,1.5,1.39c3.21,3.38,4.84,8,4.84,13.75s-1.63,10.37-4.84,13.75a16.16,16.16,0,0,1-12.36,5.06,18.3,18.3,0,0,1-6-1A16,16,0,0,1,375,194.08Z"/><path class="cls-3" d="M529.31,121.07l0,0h0l0,0h0l0,0h0l0,0H529l0,0h0l0,0h0l0,0h0l0,0h-.05l0,0h0l0,0h0l0,0h0l0,0h0l0,0h0s0,0,0,0l0,0h0l0,0h-.05l0,0h0s0,0,0,0h0l0,0h0l0,0H528l0,0h0l0,0h0l0,0h0l0,0h-.05l0,0h0l0,0h0l0,0h0l0,0h0l0,0h0l0,0h0l0,0h-.05l0,0h0s0,0,0,0h-.05l0,0h0l0,0H527l0,0h0l0,0h0l0,0h0l0,0h0s0,0,0,0h0l0,0h0l0,0h0l0,0h0l0,0h-.05l0,0h0l0,0h-.05l0,0h0l0,0h-.05s0,0,0,0h0s0,0,0,0H526s0,0,0,0h0l0,0h0a0,0,0,0,0,0,0h0l0,0h0l0,0h0l0,0h0l0,0h0l0,0h0l0,0h-.05l0,0h0s0,0,0,0h-.05l0,0h0l0,0h0s0,0,0,0l0,0h0l0,0H525l0,0h0l0,0h0s0,0,0,0h0l0,0h0l0,0h-.05l0,0h0l0,0h-.05l0,0h0l0,0h-.05a1.2,1.2,0,0,0-.51-.12H502.06a1.27,1.27,0,0,0-1.27,1.27v35.94h-35.4V122.24a1.26,1.26,0,0,0-.78-1.17s0,0,0,0h0l0,0h0l0,0h0l0,0h-.05l0,0h-.05l0,0h0l0,0h0l0,0h-.05l0,0H464l0,0h0l0,0h-.05l0,0h-.05l0,0h0l0,0h0s0,0,0,0h-.05l0,0h-.05l0,0h0l0,0h0s0,0,0,0h-.05l0,0h-.05l0,0h0s0,0,0,0h-.05l0,0h-.05l0,0H463s0,0,0,0h0l0,0h-.05l0,0h-.05l0,0h0l0,0h0l0,0h0l0,0h-.05l0,0h0l0,0h0l0,0h-.05l0,0h-.05s0,0,0,0h0l0,0h-.05l0,0h-.05s0,0,0,0H462l0,0h0l0,0h-.05l0,0h0s0,0,0,0h0l0,0h0l0,0h0l0,0h0l0,0h-.05s0,0,0,0h0l0,0h-.05s0,0,0,0h-.05l0,0h-.05s0,0,0,0h0l0,0h-.05s0,0,0,0H461l0,0h0l0,0h-.05s0,0,0,0h0l0,0h0l0,0h0l0,0h0l0,0h-.05l0,0h-.05l0,0h0l0,0h0l0,0h-.05l0,0h0l0,0h-.05s0,0,0,0h-.05l0,0h0l0,0h0l0,0h-.05l0,0h0l0,0h-.05a1.23,1.23,0,0,0-.51-.12H437.37a1.27,1.27,0,0,0-1.28,1.27v94.36a1.27,1.27,0,0,0,.79,1.17l0,0H437s0,0,0,0h0l0,0h0l0,0h0s0,0,0,0h.05l0,0h.05l0,0h0l0,0h.05s0,0,0,0h.05l0,0h.05l0,0h0l0,0h0l0,0h.05l0,0h.05l0,0h0l0,0H438l0,0h0l0,0h0l0,0h0l0,0h.05l0,0h.05l0,0h0l0,0h.05l0,0h.05l0,0h.05l0,0h0l0,0h.05l0,0h.05l0,0h0l0,0h0l0,0h0l0,0h0l0,0h0l0,0h0l0,0h.05l0,0h.05l0,0h0l0,0h.05l0,0h.05s0,0,0,0h.05l0,0h0l0,0h.05l0,0h0l0,0h0l0,0h0l0,0h0l0,0h0l0,0h.05l0,0h0l0,0h.05l0,0h.05l0,0h0l0,0h.05l0,0h.05l0,0h.05l0,0h0l0,0h.05l0,0h0l0,0h0l0,0h0l0,0h0l0,0H441l0,0h.05l0,0h0l0,0h0l0,0h.05l0,0h0l0,0h.05s0,0,0,0h.05l0,0h.05l0,0h0s0,0,0,0h.05l0,0h0a1.28,1.28,0,0,0,.52.12h21.83a1.27,1.27,0,0,0,1.27-1.27V179.18h35.4v34.67a1.27,1.27,0,0,0,.79,1.17l0,0h0s0,0,0,0h.05l0,0h0l0,0h.05s0,0,0,0h.05l0,0H502l0,0h0l0,0h0l0,0h.05l0,0h.05l0,0h0l0,0h.05l0,0h0l0,0h0l0,0h0l0,0h0l0,0h.05l0,0h0l0,0h.05l0,0h.05l0,0H503l0,0h0l0,0h.05l0,0h.05l0,0h0l0,0h0l0,0h.05l0,0h0l0,0h0l0,0h0l0,0h.05l0,0h.05s0,0,0,0h.05l0,0h0l0,0h.05l0,0H504l0,0h0l0,0h.05l0,0h.05s0,0,0,0h0l0,0h0l0,0h.05l0,0h0l0,0h.05l0,0h0l0,0h.05l0,0h0l0,0h.05l0,0h0l0,0h.05l0,0H505l0,0h0l0,0h.05l0,0h.05l0,0h0l0,0h0l0,0h0l0,0h.05l0,0h.05l0,0h0l0,0h0l0,0h.05l0,0h.05l0,0h0s0,0,0,0h.05l0,0H506l0,0h0l0,0s0,0,0,0h0s0,0,0,0h.05l0,0h0s0,0,0,0h0s0,0,0,0h0l0,0h.05a1.28,1.28,0,0,0,.52.12h21.83a1.27,1.27,0,0,0,1.27-1.27V122.24A1.26,1.26,0,0,0,529.31,121.07Z"/><path class="cls-4" d="M622.76,142.9h0l0,0h0l0,0h0l0,0h0l0,0h0l0,0h0l0,0h0l0,0h0l0,0h-.05l0,0h0l0,0h0l0,0h0l0,0h-.05l0,0h0l0,0h-.05l0,0h0l0,0h0l0,0h0l0,0h0l0,0h-.05l0,0h0l0,0h0l0,0h0l0,0h0l0,0h0l0,0h0l0,0h0s0,0,0,0h-.05l0,0h0l0,0h-.05s0,0,0,0h0l0,0h0l0,0h0l0,0h0l0,0h-.05l0,0h0l0,0h0l0,0h0l0,0h-.05l0,0h0l0,0h0l0,0h0l0,0h-.05l0,0h0l0,0h-.05l0,0h0l0,0h0l0,0h0l0,0h0l0,0h-.05l0,0h0l0,0h0l0,0h0l0,0h-.05l0,0h0s0,0,0,0h0l0,0h0l0,0h-.05l0,0h0s0,0,0,0h-.05l0,0h0l0,0h0l0,0h-.05l0,0h0l0,0h-.05s0,0,0,0h0l0,0h0l0,0h0l0,0h-.05l0,0h0l0,0h0l0,0h0l0,0h0l0,0a1.26,1.26,0,0,0-.51-.11h-21a1.27,1.27,0,0,0-1.27,1.27v3.94h0l0,0h0l0,0h0l0,0h0l0,0h-.05l0,0h0l0,0h0l0,0h0l0,0h0l0,0h-.05l0,0h0l0,0h-.05l0,0h0l0,0h0l0,0h0l0,0H594l0,0h0l0,0h0l0,0h0l0,0h-.05l0,0h0l0,0h0l0,0h0l0,0h0l0,0h-.05l0,0h0l0,0h-.05l0,0h0l0,0h0l0,0h0l0,0H593l0,0h0l0,0h0l0,0h0l0,0h-.05l0,0h0l0,0h0l0,0h0l0,0h0l0,0h-.05l0,0h0l0,0h0l0,0h0l0,0h0l0,0h0l0,0H592l0,0h0l0,0h0l0,0h0l0,0h0l0,0h0l0,0h0l0,0h0l0,0h0l0,0h-.05l0,0h0l0,0h-.05l0,0h0l0,0h-.05l0,0h0l0,0H591l0,0h0l0,0h0l0,0h0A31.92,31.92,0,0,0,574.62,139a39.17,39.17,0,0,0-19.15,4.74A34.25,34.25,0,0,0,542,157.29a44.74,44.74,0,0,0,0,40.6,34.25,34.25,0,0,0,13.51,13.57h4.92a39,39,0,0,0,19.15,4.74c6.61,0,12.26-1.39,16.9-4.14a1.19,1.19,0,0,0,.33.22l0,0h.05l0,0h0l0,0h0l0,0h0l0,0h0l0,0h.05l0,0h0s0,0,0,0h0l0,0h0l0,0h.05l0,0h0l0,0h.05l0,0h0s0,0,0,0h.05l0,0h0l0,0h.05l0,0h0l0,0h0l0,0h0l0,0h0l0,0h0l0,0h0l0,0h.05l0,0h0l0,0h0l0,0h0l0,0h.05l0,0h0l0,0h.05l0,0h0l0,0h.05l0,0h0l0,0h0l0,0h0l0,0h0l0,0h.05l0,0h0l0,0h.05l0,0h0l0,0h.05l0,0h0l0,0h.05s0,0,0,0h0l0,0h0l0,0h0s0,0,0,0h.05l0,0h0l0,0h0l0,0h0s0,0,0,0h0l0,0h.05l0,0h0l0,0h0l0,0h0l0,0h.05l0,0h0l0,0h0l0,0h0l0,0h0l0,0h0l0,0h.05l0,0h.05l0,0h0s0,0,0,0h0l0,0h0l0,0h.05l0,0h0l0,0h.05l0,0h0l0,0h.05s0,0,0,0h0l0,0h.05l0,0h0a1.27,1.27,0,0,0,.51.12h20.09a1.27,1.27,0,0,0,1.27-1.27V144.08A1.28,1.28,0,0,0,622.76,142.9Zm-52,51.18c-3.25-3.38-4.9-8-4.9-13.75s1.65-10.36,4.9-13.74a16.37,16.37,0,0,1,12.43-5.07,18,18,0,0,1,5.85.93,18,18,0,0,1,1.52,1.4c3.25,3.37,4.9,8,4.9,13.74s-1.65,10.37-4.9,13.74a16.18,16.18,0,0,1-12.29,5.07,18.3,18.3,0,0,1-6-1A16,16,0,0,1,570.75,194.08Z"/><path class="cls-5" d="M730,121.54a1.27,1.27,0,0,0-.47-.42l0,0h-.05l0,0h0l0,0h0l0,0h0l0,0h-.05l0,0h0l0,0h0l0,0h0l0,0h-.05l0,0h-.05l0,0h0l0,0h0l0,0h0l0,0h0l0,0h0l0,0h-.05l0,0h0l0,0h0l0,0h0l0,0h-.05l0,0h0l0,0h0l0,0h0l0,0h0l0,0h-.05l0,0h0l0,0h0l0,0h0l0,0h0l0,0h0l0,0h-.05l0,0h0l0,0h0l0,0h0l0,0h-.05l0,0h0l0,0h0l0,0h0l0,0h0l0,0h-.05l0,0h0l0,0h-.05l0,0h0l0,0h-.05l0,0h0l0,0h0l0,0h0l0,0h0l0,0h0l0,0h-.05l0,0h0l0,0h0l0,0h0l0,0h0l0,0h-.05l0,0h0l0,0h-.05l0,0h0l0,0h-.05l0,0h0l0,0h-.05l0,0h0l0,0h0l0,0h0l0,0h-.05l0,0h0l0,0h0l0,0h0l0,0h0l0,0h-.05l0,0h0l0,0h-.05l0,0h0a1.17,1.17,0,0,0-.61-.17H702.28a1.26,1.26,0,0,0-1.16.77l-26,60.31-24.52-57.56a1.24,1.24,0,0,0-.49-.57h0l0,0h0l0,0h0l0,0h0s0,0,0,0h0l0,0h-.05l0,0h0s0,0,0,0h0s0,0,0,0l0,0h0l0,0h0l0,0h0s0,0,0,0,0,0,0,0h0s0,0,0,0h0l0,0h0l0,0h0l0,0s0,0,0,0h0l0,0h0l0,0h0l0,0h0l0,0h0l0,0h-.05l0,0h0s0,0,0,0h-.05l0,0h0s0,0,0,0h0s0,0,0,0h0l0,0h-.05l0,0h0s0,0,0,0h0l0,0s0,0,0,0h0l0,0h0l0,0h-.05l0,0h0l0,0h-.05l0,0h0s0,0,0,0l0,0h0l0,0h0l0,0h-.05l0,0h0s0,0,0,0h0l0,0h0l0,0h-.05s0,0,0,0h0s0,0,0,0l0,0h0l0,0h0l0,0h0s0,0,0,0h-.05s0,0,0,0h0l0,0h-.05l0,0h0l0,0h-.05l0,0h0l0,0h-.05l0,0h0l0,0h-.05l0,0h0l0,0h-.05l0,0h0l0,0h0l0,0h0s0,0,0,0,0,0,0,0h0s0,0,0,0h-.05l0,0h0l0,0h-.05l0,0s0,0,0,0h0l0,0h-.05l0,0h0l0,0h0l0,0h0l0,0h0s0,0,0,0l0,0h0s0,0,0,0h-.05l0,0h0l0,0a1.27,1.27,0,0,0-.71-.22H620.87a1.27,1.27,0,0,0-1.16,1.78l40.7,94.35a1.36,1.36,0,0,0,.49.57H661l0,0h0l0,0h.05l0,0h0l0,0h.05l0,0h0l0,0h.05s0,0,0,0h0l0,0h0l0,0h0l0,0s0,0,0,0h0s0,0,0,0h0l0,0h0l0,0h0l0,0h0l0,0H662l0,0h0l0,0h0l0,0h0l0,0h0s0,0,0,0l0,0h0l0,0h.05l0,0h0l0,0h0s0,0,0,0l0,0h0l0,0h.05l0,0h.05l0,0h0l0,0h0l0,0h0l0,0H663l0,0h0l0,0h.05l0,0h0l0,0h0l0,0h0l0,0h.05l0,0h0l0,0h0l0,0h0l0,0h0l0,0h.05s0,0,0,0h0l0,0h0l0,0h0l0,0H664l0,0h0l0,0h.05l0,0h0s0,0,0,0h.05l0,0h0l0,0h.05l0,0h0l0,0h0l0,0h0s0,0,0,0h0l0,0h.05l0,0h0l0,0h0s0,0,0,0h0l0,0H665l0,0h0l0,0h.05l0,0h0l0,0h.05l0,0h0l0,0h0l0,0s0,0,0,0h0l0,0h0l0,0h0l0,0h0l0,0h.05l0,0h0l0,0a1.21,1.21,0,0,0,.7.22h21.57a1.28,1.28,0,0,0,1.16-.77l40.85-94.36A1.25,1.25,0,0,0,730,121.54Z"/><path class="cls-6" d="M794.69,160.4a37.14,37.14,0,0,0-14.64-13.74h-4.92A44.47,44.47,0,0,0,754,139a45,45,0,0,0-21.14,4.93,37,37,0,0,0-14.72,13.75,40.12,40.12,0,0,0,0,39.86,37,37,0,0,0,14.72,13.75h4.92a47.68,47.68,0,0,0,42.23,0,37.07,37.07,0,0,0,14.64-13.74,40.08,40.08,0,0,0,0-39.87Zm-48.15,33.68c-3.26-3.38-4.91-8-4.91-13.75s1.65-10.36,4.9-13.74A16.4,16.4,0,0,1,759,161.52a18.41,18.41,0,0,1,5.94.93,16.25,16.25,0,0,1,1.5,1.39c3.21,3.38,4.84,8,4.84,13.75s-1.63,10.37-4.84,13.75A16.15,16.15,0,0,1,754,196.4a18.3,18.3,0,0,1-6-1A17.26,17.26,0,0,1,746.54,194.08Z"/><path class="cls-7" d="M198.47,122h-.25a0,0,0,0,1,0,0h-.14a0,0,0,0,0,0,0h0a0,0,0,0,1,0,0H198s0,0,0,0h-.14a0,0,0,0,0,0,0h-.38s0,0,0,0h-.33a0,0,0,0,0,0,0h0a0,0,0,0,1,0,0h-.14s0,0,0,0h-.06a0,0,0,0,0,0,0h-.19s0,0,0,0h-.06a0,0,0,0,0,0,0h0a0,0,0,0,1,0,0h-.21a0,0,0,0,0,0,0h0a0,0,0,0,1,0,0h-.33s0,0,0,0h-.19s0,0,0,0h-.33a0,0,0,0,0,0,0h0a0,0,0,0,1,0,0H195a0,0,0,0,1,0,0h-.06s0,0,0,0h-.19a0,0,0,0,1,0,0h-.06s0,0,0,0h-.14a0,0,0,0,0,0,0h0a0,0,0,0,1,0,0h-.33s0,0,0,0h-.38a0,0,0,0,1,0,0h-.14s0,0,0,0h0a1.3,1.3,0,0,0-1.27,0l-81.12,46.84a1.29,1.29,0,0,0-.64,1.1v93.66a1.29,1.29,0,0,0,.64,1.1h.22s0,0,0,0h.65s0,0,0,0h.68a0,0,0,0,0,0,0h.65s0,0,0,0h.11a0,0,0,0,1,0,0h.21a0,0,0,0,0,0,0h1.12s0,0,0,0h.65a0,0,0,0,1,0,0h.33s0,0,0,0h.21a1.29,1.29,0,0,0,.63.17,1.33,1.33,0,0,0,.64-.17l81.12-46.82a1.26,1.26,0,0,0,.63-1.1V123.12a1.26,1.26,0,0,0-.63-1.1Z"/><path class="cls-8" d="M6.83,122h0l0,0h0l0,0H6.68l0,0H6.56l0,0h0l0,0h0l0,0h0l0,0h0l0,0h0l0,0H6.14l0,0h0l0,0H6l0,0h0l0,0h-.1l0,0h0l0,0h0l0,0h-.1l0,0h0l0,0H5.4l0,0h0l0,0h0l0,0h0l0,0H5.14l0,0h0l0,0H5l0,0h0l0,0h-.1l0,0h0l0,0h0l0,0h-.1l0,0H4.47l0,0h0l0,0h0l0,0h0l0,0h0l0,0h0l0,0h0l0,0H4l0,0H3.94l0,0H3.86l0,0h0l0,0h0l0,0H3.67l0,0h-.1l0,0h0l0,0H3.4l0,0h0l0,0H3.28l0,0h0l0,0H3.13l0,0h0l0,0H3l0,0h0l0,0h-.1l0,0h0l0,0h0l0,0h-.1l0,0h0l0,0h0l0,0h-.1l0,0h0l0,0H2.12l0,0h0l0,0H2l0,0H1.93l0,0a1.3,1.3,0,0,0-1.27,0,1.27,1.27,0,0,0-.64,1.1v93.69a1.27,1.27,0,0,0,.64,1.1L81.76,262h0l0,0h0l0,0h.05l0,0h0l0,0h0l0,0h0l0,0h0l0,0h0l0,0h.1l0,0h0l0,0h0l0,0h0l0,0h0l0,0h0l0,0h0l0,0h0l0,0h0l0,0h0l0,0h0l0,0h0l0,0h.05l0,0h0l0,0h.1l0,0h0l0,0h0l0,0h.1l0,0h.06l0,0h.05l0,0h0l0,0h0l0,0h0l0,0h0l0,0h0l0,0h.05l0,0h0l0,0h.1l0,0h0l0,0h0l0,0h.1l0,0h0l0,0h.05l0,0h0l0,0h0l0,0h0l0,0h0l0,0h0l0,0h.05l0,0h.05l0,0h.1l0,0h0l0,0h0l0,0h.1l0,0h0l0,0h0l0,0h0l0,0h0l0,0h0l0,0h.06l0,0h0l0,0h0l0,0h.05l0,0h0l0,0h0l0,0h0l0,0h0l0,0h.1l0,0a1.27,1.27,0,0,0,.63.17,1.33,1.33,0,0,0,.64-.17,1.28,1.28,0,0,0,.63-1.1V170a1.28,1.28,0,0,0-.63-1.1Z"/><path class="cls-9" d="M184.31,97.33a1.21,1.21,0,0,0-.47-.69l0,0h0l0,0h0l0,0h-.05l0,0h0s0,0,0,0l0,0h0l0,0h0l0,0s0,0,0,0h0l0,0h0l0,0h-.05l0,0h0l0,0h-.05s0,0,0,0h0s0,0,0,0,0,0,0,0h0s0,0,0,0h-.05l0,0h0s0,0,0,0h0l0,0s0,0,0,0h0s0,0,0,0h-.05l0,0h-.05s0,0,0,0h0l0,0h-.05l0,0h0s0,0,0,0l0,0h0s0,0,0,0h-.05l0,0s0,0,0,0h0l0,0h0s0,0,0,0l0,0h0l0,0H182l0,0h0s0,0,0,0h0s0,0,0,0,0,0,0,0h0s0,0,0,0h0l0,0h-.05l0,0h-.05s0,0,0,0h0s0,0,0,0h0s0,0,0,0l0,0h0s0,0,0,0h-.05l0,0h0l0,0h-.05l0,0h0l0,0h0l0,0H181s0,0,0,0h0s0,0,0,0l0,0h0l0,0h0l0,0h-.05s0,0,0,0,0,0,0,0h0s0,0,0,0h-.05l0,0h0l0,0h0l0,0s0,0,0,0h0l0,0h-.05l0,0h0l0,0h0l0,0h0l0,0h0l0,0h0s0,0,0,0h0l0,0h-.05s0,0,0,0h0s0,0,0,0h-.05l0,0h-.05l0,0h0s0,0,0,0h0s0,0,0,0,0,0,0,0h0s0,0,0,0h0l0,0h-.05l0,0h0l0,0h-.05l0,0h0s0,0,0,0l0,0h0l0,0h0l0,0a1.32,1.32,0,0,0-.77-.26H16A1.27,1.27,0,0,0,15.4,96l81.05,46.82h0l0,0h0l0,0h0l0,0h.1l0,0h0l0,0h.05l0,0h0l0,0h0l0,0h0l0,0h0l0,0h0l0,0h.05l0,0h0l0,0h0l0,0h0l0,0h0l0,0h0l0,0h.1l0,0h0l0,0h0l0,0h0l0,0h0l0,0h0l0,0h.06l0,0h0l0,0h0l0,0h0l0,0h0l0,0h0l0,0h.05l0,0h0l0,0h.1l0,0h0l0,0h0l0,0H99l0,0h.06l0,0h.05l0,0h0l0,0h0l0,0h0l0,0h0l0,0h0l0,0h.05l0,0h0l0,0h.1l0,0h0l0,0h0l0,0h.1l0,0h0l0,0h.05l0,0h0l0,0h0l0,0h0l0,0h0l0,0h0l0,0h.05l0,0h.05l0,0h.1l0,0h0l0,0h0l0,0h.1l0,0h0l0,0h0l0,0h0l0,0h0l0,0h0l0,0a1.27,1.27,0,0,0,.63.17,1.33,1.33,0,0,0,.64-.17l81.07-46.82A1.27,1.27,0,0,0,184.31,97.33Z"/><path class="cls-10" d="M104.43,85.24h.06s0,0,0,0h0s0,0,0,0h.18s0,0,0,0h0s0,0,0,0h.1s0,0,0,0H105a0,0,0,0,0,0,0h0s0,0,0,0h0s0,0,0,0h0s0,0,0,0h.17s0,0,0,0h0s0,0,0,0h.28s0,0,0,0h0a0,0,0,0,1,0,0h.13s0,0,0,0H106s0,0,0,0h0s0,0,0,0h.13a0,0,0,0,0,0,0h0s0,0,0,0h0s0,0,0,0h.22s0,0,0,0h.06s0,0,0,0h0a0,0,0,0,1,0,0h.13s0,0,0,0h0s0,0,0,0h0s0,0,0,0h0s0,0,0,0h.13s0,0,0,0h.13s0,0,0,0h.17s0,0,0,0h0s0,0,0,0h.28s0,0,0,0h0s0,0,0,0H108s0,0,0,0h0s0,0,0,0h0s0,0,0,0h.06s0,0,0,0h.25s0,0,0,0h.13a0,0,0,0,0,0,0h0s0,0,0,0h0s0,0,0,0H109s0,0,0,0h0a0,0,0,0,1,0,0h.13s0,0,0,0h0s0,0,0,0h0s0,0,0,0h.07a1.31,1.31,0,0,0,.75.24,1.23,1.23,0,0,0,.77-.26l47.21-35.67a1.24,1.24,0,0,0,.5-.92,1.26,1.26,0,0,0-.37-1l-25.81-25.8a1.23,1.23,0,0,0-.55-.32l0,0h-.05l0,0h0l0,0h0l0,0h-.05l0,0h0l0,0h0a0,0,0,0,1,0,0h0l0,0h-.05l0,0h-.05l0,0h0l0,0h-.05l0,0h0l0,0H131l0,0h0s0,0,0,0h0l0,0h-.05s0,0,0,0h0l0,0h0s0,0,0,0h-.05l0,0h0l0,0h0l0,0h0l0,0h-.05l0,0h0l0,0h0l0,0h0l0,0h0l0,0H130l0,0h0l0,0h-.05s0,0,0,0h-.05l0,0h0l0,0h0l0,0h0l0,0h-.05l0,0h0s0,0,0,0h0l0,0h0l0,0h0l0,0h0l0,0h0l0,0h0l0,0h-.05s0,0,0,0h0s0,0,0,0h-.05l0,0h-.05l0,0h-.05s0,0,0,0h0l0,0h0l0,0h-.05l0,0h0a0,0,0,0,0,0,0h0l0,0h-.05l0,0h0l0,0h0l0,0h0l0,0H128l0,0h0l0,0h0a0,0,0,0,1,0,0h-.05l0,0h-.05l0,0h0l0,0h0s0,0,0,0h0l0,0h0l0,0h0s0,0,0,0h0l0,0h0l0,0h0l0,0h0l0,0h0l0,0h0l0,0h0a1.18,1.18,0,0,0-.67,0,1.25,1.25,0,0,0-.92.82L104,83.79a1.27,1.27,0,0,0,.45,1.44Z"/><path class="cls-11" d="M94.9,85.22h4.92a1.23,1.23,0,0,0,.77.26,1.31,1.31,0,0,0,.75-.24,1.29,1.29,0,0,0,.45-1.45L72.92,3.6a1.3,1.3,0,0,0-.75-.77h0s0,0,0,0h-.06l0,0H72l0,0h-.05s0,0,0,0H71.8a0,0,0,0,0,0,0h0s0,0,0,0h0l0,0h0l0,0h-.11s0,0,0,0h0l0,0h0l0,0h-.11s0,0,0,0h-.06l0,0h-.05l0,0H71s0,0,0,0h-.06l0,0h0l0,0h-.1s0,0,0,0H70.6s0,0,0,0h-.1l0,0h0l0,0h-.06s0,0,0,0h-.1l0,0h0l0,0h-.06s0,0,0,0h-.1l0,0h0l0,0h-.06s0,0,0,0h-.11s0,0,0,0H69.6l0,0h0l0,0h0s0,0,0,0H69.4s0,0,0,0h0l0,0h-.1l0,0h-.06s0,0,0,0h0l0,0h-.1l0,0h-.06s0,0,0,0h-.06l0,0h0s0,0,0,0h0l0,0H68.6s0,0,0,0h-.06s0,0,0,0h0s0,0,0,0h0l0,0h0s0,0,0,0H68.2s0,0,0,0h-.05l0,0h0l0,0h-.11s0,0,0,0h-.06l0,0h0l0,0h-.1s0,0,0,0h-.06l0,0h0s0,0,0,0h0l0,0h0s0,0,0,0h-.06s0,0,0,0h0a1.24,1.24,0,0,0-1.06.07l-47,25.61a1.29,1.29,0,0,0-.66,1A1.27,1.27,0,0,0,19,27.9Z"/><polygon class="cls-12" points="329.26 119.49 304.06 161.41 278.85 119.49 255.66 119.49 292.19 180.15 292.19 213.85 314.03 213.85 314.03 180.42 350.69 119.49 329.26 119.49"/><path class="cls-13" d="M403,145A46.37,46.37,0,0,0,362,145a35.63,35.63,0,0,0-14.22,13.27,38.86,38.86,0,0,0,0,38.56A35.63,35.63,0,0,0,362,210.14a46.37,46.37,0,0,0,41.05,0,35.64,35.64,0,0,0,14.15-13.27,38.86,38.86,0,0,0,0-38.56A35.64,35.64,0,0,0,403,145Zm-7.21,47.18a17.55,17.55,0,0,1-13.28,5.45,17.74,17.74,0,0,1-13.34-5.45q-5.26-5.46-5.26-14.63T369.21,163a17.74,17.74,0,0,1,13.34-5.45A17.55,17.55,0,0,1,395.83,163q5.19,5.46,5.19,14.63T395.83,192.22Z"/><polygon class="cls-14" points="502.06 156.7 459.2 156.7 459.2 119.49 437.37 119.49 437.37 213.85 459.2 213.85 459.2 175.16 502.06 175.16 502.06 213.85 523.9 213.85 523.9 119.49 502.06 119.49 502.06 156.7"/><path class="cls-15" d="M596.32,149q-7.82-8.76-21.7-8.76a37.64,37.64,0,0,0-18.54,4.59,32.77,32.77,0,0,0-13,13.07,43.39,43.39,0,0,0,0,39.36,32.86,32.86,0,0,0,13,13.08,37.74,37.74,0,0,0,18.54,4.58q14.82,0,22.64-9.44v8.36h20.09V141.33h-21Zm-4.85,43.21a18.9,18.9,0,0,1-26.56,0q-5.25-5.46-5.25-14.63T564.91,163a18.9,18.9,0,0,1,26.56,0q5.25,5.46,5.25,14.63T591.47,192.22Z"/><polygon class="cls-16" points="702.28 119.49 673.17 186.89 644.46 119.49 620.87 119.49 661.58 213.85 683.14 213.85 723.99 119.49 702.28 119.49"/><path class="cls-17" d="M788.69,158.31A35.73,35.73,0,0,0,774.53,145a46.35,46.35,0,0,0-41,0,35.5,35.5,0,0,0-14.22,13.27,38.86,38.86,0,0,0,0,38.56,35.5,35.5,0,0,0,14.22,13.27,46.35,46.35,0,0,0,41,0,35.73,35.73,0,0,0,14.16-13.27,38.86,38.86,0,0,0,0-38.56Zm-21.37,33.91A17.53,17.53,0,0,1,754,197.67a17.76,17.76,0,0,1-13.34-5.45q-5.25-5.46-5.26-14.63T740.7,163A17.76,17.76,0,0,1,754,157.51,17.53,17.53,0,0,1,767.32,163q5.19,5.46,5.19,14.63T767.32,192.22Z"/><path class="cls-18" d="M178.17,94.91,97.09,141.73,16,94.91ZM1.27,214.06l81.12,46.81V167.22L1.27,120.37Zm110.54,46.81,81.12-46.81V120.37l-81.12,46.85Z"/><polygon class="cls-19" points="95.67 84.2 19.8 26.89 66.8 1.27 95.67 84.2"/><polygon class="cls-20" points="126.56 22.73 105.16 84.2 152.37 48.54 126.56 22.73"/><path class="cls-21" d="M314,215.12H292.19a1.27,1.27,0,0,1-1.27-1.27V180.5l-36.34-60.35a1.25,1.25,0,0,1,0-1.28,1.27,1.27,0,0,1,1.11-.65h23.18a1.29,1.29,0,0,1,1.09.62L304.06,159l24.11-40.11a1.29,1.29,0,0,1,1.09-.62h21.43a1.27,1.27,0,0,1,1.09,1.93L315.3,180.77v33.08A1.27,1.27,0,0,1,314,215.12Zm-20.57-2.54h19.3V180.42a1.22,1.22,0,0,1,.18-.65l35.51-59H330l-24.84,41.31a1.32,1.32,0,0,1-2.17,0l-24.84-41.31H257.91l35.37,58.74a1.22,1.22,0,0,1,.18.65Z"/><path class="cls-22" d="M382.55,216.2a45,45,0,0,1-21.15-4.93,37,37,0,0,1-14.71-13.75,40.06,40.06,0,0,1,0-39.86,37,37,0,0,1,14.71-13.75A45,45,0,0,1,382.55,139a44.46,44.46,0,0,1,21.08,4.94h0a37.07,37.07,0,0,1,14.64,13.74,40.06,40.06,0,0,1,0,39.86,37,37,0,0,1-14.65,13.74A44.43,44.43,0,0,1,382.55,216.2Zm0-74.68a42.39,42.39,0,0,0-20,4.64A34.57,34.57,0,0,0,348.86,159a37.56,37.56,0,0,0,0,37.24A34.43,34.43,0,0,0,362.59,209a42.39,42.39,0,0,0,20,4.64A42,42,0,0,0,402.44,209a34.5,34.5,0,0,0,13.66-12.81,37.56,37.56,0,0,0,0-37.24,34.57,34.57,0,0,0-13.66-12.81h0A42.06,42.06,0,0,0,382.55,141.52Zm0,57.42a19,19,0,0,1-14.26-5.84c-3.72-3.87-5.61-9.09-5.61-15.51s1.89-11.64,5.61-15.51a20.24,20.24,0,0,1,28.46,0c3.67,3.87,5.54,9.08,5.54,15.5s-1.87,11.63-5.54,15.5h0A18.8,18.8,0,0,1,382.55,198.94Zm0-40.16a16.33,16.33,0,0,0-12.43,5.07c-3.25,3.37-4.9,8-4.9,13.74s1.65,10.37,4.9,13.75a16.37,16.37,0,0,0,12.43,5.06,16.16,16.16,0,0,0,12.36-5.06c3.21-3.38,4.84-8,4.84-13.75s-1.63-10.37-4.84-13.75A16.15,16.15,0,0,0,382.55,158.78Zm13.28,33.44h0Z"/><path class="cls-23" d="M523.9,215.12H502.06a1.27,1.27,0,0,1-1.27-1.27V176.43H460.47v37.42a1.27,1.27,0,0,1-1.27,1.27H437.37a1.27,1.27,0,0,1-1.28-1.27V119.49a1.27,1.27,0,0,1,1.28-1.27H459.2a1.27,1.27,0,0,1,1.27,1.27v35.94h40.32V119.49a1.27,1.27,0,0,1,1.27-1.27H523.9a1.27,1.27,0,0,1,1.27,1.27v94.36A1.27,1.27,0,0,1,523.9,215.12Zm-20.56-2.54h19.29V120.76H503.34V156.7a1.27,1.27,0,0,1-1.28,1.27H459.2a1.27,1.27,0,0,1-1.27-1.27V120.76H438.64v91.82h19.29V175.16a1.27,1.27,0,0,1,1.27-1.27h42.86a1.27,1.27,0,0,1,1.28,1.27Z"/><path class="cls-24" d="M574.62,216.2a39.14,39.14,0,0,1-19.15-4.74A34.25,34.25,0,0,1,542,197.89a44.74,44.74,0,0,1,0-40.6,34.25,34.25,0,0,1,13.51-13.57A39.17,39.17,0,0,1,574.62,139c8.35,0,15.2,2.34,20.43,7v-4.63a1.27,1.27,0,0,1,1.27-1.27h21a1.27,1.27,0,0,1,1.27,1.27v72.52a1.27,1.27,0,0,1-1.27,1.27H597.26a1.27,1.27,0,0,1-1.27-1.27V208.7C590.7,213.68,583.52,216.2,574.62,216.2Zm0-74.68A36.53,36.53,0,0,0,556.7,146a31.61,31.61,0,0,0-12.51,12.58,42.11,42.11,0,0,0,0,38.12,31.61,31.61,0,0,0,12.51,12.58,36.51,36.51,0,0,0,17.92,4.43c9.44,0,16.73-3,21.67-9a1.25,1.25,0,0,1,1.4-.38,1.26,1.26,0,0,1,.84,1.19v7.09h17.55v-70H597.59V149a1.27,1.27,0,0,1-2.22.85C590.43,144.33,583.45,141.52,574.62,141.52Zm3.64,57.42A19,19,0,0,1,564,193.1c-3.73-3.87-5.61-9.09-5.61-15.51S560.27,166,564,162.08a20.16,20.16,0,0,1,28.38,0c3.73,3.87,5.61,9.09,5.61,15.51s-1.88,11.64-5.61,15.51h0A18.87,18.87,0,0,1,578.26,198.94Zm0-40.16a16.33,16.33,0,0,0-12.43,5.07c-3.25,3.37-4.9,8-4.9,13.74s1.65,10.37,4.9,13.75a16.36,16.36,0,0,0,12.43,5.06,16.18,16.18,0,0,0,12.29-5.07c3.25-3.37,4.9-8,4.9-13.74s-1.65-10.37-4.9-13.74A16.16,16.16,0,0,0,578.26,158.78Zm13.21,33.44h0Z"/><path class="cls-25" d="M683.15,215.12H661.58a1.27,1.27,0,0,1-1.17-.77L619.71,120a1.27,1.27,0,0,1,1.16-1.78h23.59a1.28,1.28,0,0,1,1.17.78l27.55,64.67L701.12,119a1.26,1.26,0,0,1,1.16-.77H724a1.28,1.28,0,0,1,1.17,1.78l-40.85,94.36A1.27,1.27,0,0,1,683.15,215.12Zm-20.74-2.54h19.9l39.74-91.82H703.12l-28.78,66.63a1.27,1.27,0,0,1-1.17.77h0a1.27,1.27,0,0,1-1.17-.77l-28.38-66.63H622.8Z"/><path class="cls-26" d="M754,216.2a44.93,44.93,0,0,1-21.14-4.93,37,37,0,0,1-14.72-13.75,40.12,40.12,0,0,1,0-39.86,37,37,0,0,1,14.72-13.75A45,45,0,0,1,754,139a44.47,44.47,0,0,1,21.09,4.94,37.07,37.07,0,0,1,14.64,13.74h0a40.06,40.06,0,0,1,0,39.86,37,37,0,0,1-14.64,13.74A44.47,44.47,0,0,1,754,216.2Zm0-74.68a42.42,42.42,0,0,0-20,4.64A34.47,34.47,0,0,0,720.36,159a37.56,37.56,0,0,0,0,37.24A34.4,34.4,0,0,0,734.08,209a45.12,45.12,0,0,0,39.86,0,34.56,34.56,0,0,0,13.66-12.81,37.56,37.56,0,0,0,0-37.24h0a34.56,34.56,0,0,0-13.66-12.81A42,42,0,0,0,754,141.52Zm0,57.42a19,19,0,0,1-14.25-5.84c-3.73-3.87-5.62-9.09-5.62-15.51s1.89-11.64,5.61-15.51A19,19,0,0,1,754,156.24a18.83,18.83,0,0,1,14.2,5.85c3.68,3.87,5.54,9.08,5.54,15.5s-1.86,11.63-5.54,15.5h0A18.79,18.79,0,0,1,754,198.94Zm0-40.16a16.36,16.36,0,0,0-12.43,5.07c-3.25,3.37-4.9,8-4.9,13.74s1.65,10.37,4.91,13.75A16.35,16.35,0,0,0,754,196.4a16.15,16.15,0,0,0,12.36-5.06h0c3.21-3.38,4.84-8,4.84-13.75s-1.63-10.37-4.84-13.75A16.15,16.15,0,0,0,754,158.78Zm13.28,33.44h0Z"/><path class="cls-27" d="M111.81,262.14a1.27,1.27,0,0,1-.63-.17,1.29,1.29,0,0,1-.64-1.1V167.21a1.29,1.29,0,0,1,.64-1.1l81.12-46.84a1.3,1.3,0,0,1,1.27,0,1.28,1.28,0,0,1,.63,1.1v93.69a1.28,1.28,0,0,1-.63,1.1L112.45,262A1.33,1.33,0,0,1,111.81,262.14ZM113.08,168v90.72l78.58-45.35V122.57ZM82.39,262.14a1.27,1.27,0,0,1-.63-.17L.64,215.16a1.27,1.27,0,0,1-.64-1.1V120.37a1.27,1.27,0,0,1,.64-1.1,1.3,1.3,0,0,1,1.27,0L83,166.11a1.28,1.28,0,0,1,.63,1.1v93.66A1.28,1.28,0,0,1,83,262,1.33,1.33,0,0,1,82.39,262.14ZM2.54,213.32l78.58,45.35V168L2.54,122.57ZM97.09,143a1.33,1.33,0,0,1-.64-.17L15.4,96A1.27,1.27,0,0,1,16,93.64H178.17A1.27,1.27,0,0,1,178.8,96L97.72,142.83A1.27,1.27,0,0,1,97.09,143ZM20.78,96.18l76.31,44.08,76.34-44.08Z"/><path class="cls-28" d="M105.16,85.48a1.25,1.25,0,0,1-.75-.25,1.27,1.27,0,0,1-.45-1.44l21.4-61.47a1.27,1.27,0,0,1,2.1-.48l25.81,25.8a1.27,1.27,0,0,1-.13,1.91L105.93,85.22A1.3,1.3,0,0,1,105.16,85.48ZM127.1,25.06,107.74,80.67l42.7-32.27ZM95.67,85.48a1.3,1.3,0,0,1-.77-.26L19,27.9a1.27,1.27,0,0,1-.51-1.11,1.29,1.29,0,0,1,.66-1L66.19.16A1.24,1.24,0,0,1,67.25.09,1.28,1.28,0,0,1,68,.85L96.87,83.79a1.27,1.27,0,0,1-.45,1.44A1.25,1.25,0,0,1,95.67,85.48ZM22.14,27.06l71,53.61L66.09,3.1Z"/></g></g></svg>