<svg version="1.2" xmlns="http://www.w3.org/2000/svg" viewBox="0 0 380 144" width="100%" height="144" preserveAspectRatio="none"><style>.s0{fill:#c2c2c2}.s1{fill:none;stroke:#15616d;stroke-linejoin:round}</style><path fill-rule="evenodd" class="s0" d="m0 20.7c0-11.4 9-20.7 20-20.7c0 0 210 0 240 0c0 15.1 20 15 20 0c30 0 80.1 0 80.1 0c11 0 20 9.3 20 20.7v102.6c0 11.4-9 20.7-20 20.7c0 0-55.1 0-80.1 0c0-13.9-20-13.9-20 0c-20 0-240 0-240 0c-11 0-20-9.3-20-20.7zm272-0.2c0-1.4-1.1-2.5-2.5-2.5c-1.4 0-2.5 1.1-2.5 2.5c0 1.4 1.1 2.5 2.5 2.5c1.4 0 2.5-1.1 2.5-2.5zm0 8c0-1.4-1.1-2.5-2.5-2.5c-1.4 0-2.5 1.1-2.5 2.5c0 1.4 1.1 2.5 2.5 2.5c1.4 0 2.5-1.1 2.5-2.5zm0 8c0-1.4-1.1-2.5-2.5-2.5c-1.4 0-2.5 1.1-2.5 2.5c0 1.4 1.1 2.5 2.5 2.5c1.4 0 2.5-1.1 2.5-2.5zm0 8c0-1.4-1.1-2.5-2.5-2.5c-1.4 0-2.5 1.1-2.5 2.5c0 1.4 1.1 2.5 2.5 2.5c1.4 0 2.5-1.1 2.5-2.5zm0 8c0-1.4-1.1-2.5-2.5-2.5c-1.4 0-2.5 1.1-2.5 2.5c0 1.4 1.1 2.5 2.5 2.5c1.4 0 2.5-1.1 2.5-2.5zm0 8c0-1.4-1.1-2.5-2.5-2.5c-1.4 0-2.5 1.1-2.5 2.5c0 1.4 1.1 2.5 2.5 2.5c1.4 0 2.5-1.1 2.5-2.5zm0 8c0-1.4-1.1-2.5-2.5-2.5c-1.4 0-2.5 1.1-2.5 2.5c0 1.4 1.1 2.5 2.5 2.5c1.4 0 2.5-1.1 2.5-2.5zm0 8c0-1.4-1.1-2.5-2.5-2.5c-1.4 0-2.5 1.1-2.5 2.5c0 1.4 1.1 2.5 2.5 2.5c1.4 0 2.5-1.1 2.5-2.5zm0 8c0-1.4-1.1-2.5-2.5-2.5c-1.4 0-2.5 1.1-2.5 2.5c0 1.4 1.1 2.5 2.5 2.5c1.4 0 2.5-1.1 2.5-2.5zm0 8c0-1.4-1.1-2.5-2.5-2.5c-1.4 0-2.5 1.1-2.5 2.5c0 1.4 1.1 2.5 2.5 2.5c1.4 0 2.5-1.1 2.5-2.5zm0 8c0-1.4-1.1-2.5-2.5-2.5c-1.4 0-2.5 1.1-2.5 2.5c0 1.4 1.1 2.5 2.5 2.5c1.4 0 2.5-1.1 2.5-2.5zm0 8c0-1.4-1.1-2.5-2.5-2.5c-1.4 0-2.5 1.1-2.5 2.5c0 1.4 1.1 2.5 2.5 2.5c1.4 0 2.5-1.1 2.5-2.5zm0 8c0-1.4-1.1-2.5-2.5-2.5c-1.4 0-2.5 1.1-2.5 2.5c0 1.4 1.1 2.5 2.5 2.5c1.4 0 2.5-1.1 2.5-2.5zm0 8c0-1.4-1.1-2.5-2.5-2.5c-1.4 0-2.5 1.1-2.5 2.5c0 1.4 1.1 2.5 2.5 2.5c1.4 0 2.5-1.1 2.5-2.5z" /><path class="s1" d="m4 23.5c0-10.7 8.9-19.4 19.8-19.4c0 0 203.3 0 233.1 0c-0.3 15.9 26.2 16.1 26.8 0c29.8 0 73 0 73 0c10.9 0 19.8 8.7 19.8 19.4v96.9c0 10.8-8.9 19.5-19.8 19.5c0 0-48.2 0-73 0c0-15.1-26.8-14.8-26.8 0c-19.9 0-233.1 0-233.1 0c-10.9 0-19.8-8.7-19.8-19.5z" /></svg>