<svg version="1.2" xmlns="http://www.w3.org/2000/svg" viewBox="0 0 1000 120" width="100%" height="120" preserveAspectRatio="none">
	<defs>
		<linearGradient id="g1" x1="692" y1="60.5" x2="687" y2="60.5" gradientUnits="userSpaceOnUse">
			<stop offset="0" stop-color="#000000"/>
			<stop offset="1" stop-color="#ffffff"/>
		</linearGradient>
	</defs>
	<style>
		.s0 { fill: #c2c2c2 } 
		.s1 { fill: none;stroke: #15616d;stroke-linejoin: round }
		.s2 { fill: none;stroke: url(#g1);paint-order:stroke fill markers;stroke-linejoin: round;stroke-opacity: .3;stroke-width: 1 }
	</style>
	<path id="cover" fill-rule="evenodd" class="s0" d="m0 20.7c0-11.4 9-20.7 20-20.7c0 0 630 0 660 0c0 15.1 20 15 20 0c30 0 280 0 280 0c11 0 20 9.3 20 20.7v78.6c0 11.4-9 20.7-20 20.7c0 0-255 0-280 0c0-13.9-20-13.9-20 0c-20 0-660 0-660 0c-11 0-20-9.3-20-20.7zm692-0.2c0-1.4-1.1-2.5-2.5-2.5c-1.4 0-2.5 1.1-2.5 2.5c0 1.4 1.1 2.5 2.5 2.5c1.4 0 2.5-1.1 2.5-2.5zm0 8c0-1.4-1.1-2.5-2.5-2.5c-1.4 0-2.5 1.1-2.5 2.5c0 1.4 1.1 2.5 2.5 2.5c1.4 0 2.5-1.1 2.5-2.5zm0 8c0-1.4-1.1-2.5-2.5-2.5c-1.4 0-2.5 1.1-2.5 2.5c0 1.4 1.1 2.5 2.5 2.5c1.4 0 2.5-1.1 2.5-2.5zm0 8c0-1.4-1.1-2.5-2.5-2.5c-1.4 0-2.5 1.1-2.5 2.5c0 1.4 1.1 2.5 2.5 2.5c1.4 0 2.5-1.1 2.5-2.5zm0 8c0-1.4-1.1-2.5-2.5-2.5c-1.4 0-2.5 1.1-2.5 2.5c0 1.4 1.1 2.5 2.5 2.5c1.4 0 2.5-1.1 2.5-2.5zm0 8c0-1.4-1.1-2.5-2.5-2.5c-1.4 0-2.5 1.1-2.5 2.5c0 1.4 1.1 2.5 2.5 2.5c1.4 0 2.5-1.1 2.5-2.5zm0 8c0-1.4-1.1-2.5-2.5-2.5c-1.4 0-2.5 1.1-2.5 2.5c0 1.4 1.1 2.5 2.5 2.5c1.4 0 2.5-1.1 2.5-2.5zm0 8c0-1.4-1.1-2.5-2.5-2.5c-1.4 0-2.5 1.1-2.5 2.5c0 1.4 1.1 2.5 2.5 2.5c1.4 0 2.5-1.1 2.5-2.5zm0 8c0-1.4-1.1-2.5-2.5-2.5c-1.4 0-2.5 1.1-2.5 2.5c0 1.4 1.1 2.5 2.5 2.5c1.4 0 2.5-1.1 2.5-2.5zm0 8c0-1.4-1.1-2.5-2.5-2.5c-1.4 0-2.5 1.1-2.5 2.5c0 1.4 1.1 2.5 2.5 2.5c1.4 0 2.5-1.1 2.5-2.5zm0 8c0-1.4-1.1-2.5-2.5-2.5c-1.4 0-2.5 1.1-2.5 2.5c0 1.4 1.1 2.5 2.5 2.5c1.4 0 2.5-1.1 2.5-2.5z" />
	<path id="line" class="s1" d="m3 22.5c0-10.7 8.9-19.4 19.8-19.4c0 0 624 0 653.8 0c-0.3 15.9 26.2 16.1 26.8 0c29.8 0 273.8 0 273.8 0c10.9 0 19.8 8.7 19.8 19.4v74.9c0 10.8-8.9 19.5-19.8 19.5c0 0-249 0-273.8 0c0-15.1-26.8-14.8-26.8 0c-19.9 0-653.8 0-653.8 0c-10.9 0-19.8-8.7-19.8-19.5z" />
	<path id="holes" class="s2" d="m689.5 23c-1.4 0-2.5-1.1-2.5-2.5c0-1.4 1.1-2.5 2.5-2.5c1.4 0 2.5 1.1 2.5 2.5c0 1.4-1.1 2.5-2.5 2.5zm0 8c-1.4 0-2.5-1.1-2.5-2.5c0-1.4 1.1-2.5 2.5-2.5c1.4 0 2.5 1.1 2.5 2.5c0 1.4-1.1 2.5-2.5 2.5zm0 8c-1.4 0-2.5-1.1-2.5-2.5c0-1.4 1.1-2.5 2.5-2.5c1.4 0 2.5 1.1 2.5 2.5c0 1.4-1.1 2.5-2.5 2.5zm0 8c-1.4 0-2.5-1.1-2.5-2.5c0-1.4 1.1-2.5 2.5-2.5c1.4 0 2.5 1.1 2.5 2.5c0 1.4-1.1 2.5-2.5 2.5zm0 8c-1.4 0-2.5-1.1-2.5-2.5c0-1.4 1.1-2.5 2.5-2.5c1.4 0 2.5 1.1 2.5 2.5c0 1.4-1.1 2.5-2.5 2.5zm0 8c-1.4 0-2.5-1.1-2.5-2.5c0-1.4 1.1-2.5 2.5-2.5c1.4 0 2.5 1.1 2.5 2.5c0 1.4-1.1 2.5-2.5 2.5zm0 8c-1.4 0-2.5-1.1-2.5-2.5c0-1.4 1.1-2.5 2.5-2.5c1.4 0 2.5 1.1 2.5 2.5c0 1.4-1.1 2.5-2.5 2.5zm0 8c-1.4 0-2.5-1.1-2.5-2.5c0-1.4 1.1-2.5 2.5-2.5c1.4 0 2.5 1.1 2.5 2.5c0 1.4-1.1 2.5-2.5 2.5zm0 8c-1.4 0-2.5-1.1-2.5-2.5c0-1.4 1.1-2.5 2.5-2.5c1.4 0 2.5 1.1 2.5 2.5c0 1.4-1.1 2.5-2.5 2.5zm0 8c-1.4 0-2.5-1.1-2.5-2.5c0-1.4 1.1-2.5 2.5-2.5c1.4 0 2.5 1.1 2.5 2.5c0 1.4-1.1 2.5-2.5 2.5zm0 8c-1.4 0-2.5-1.1-2.5-2.5c0-1.4 1.1-2.5 2.5-2.5c1.4 0 2.5 1.1 2.5 2.5c0 1.4-1.1 2.5-2.5 2.5z" />
</svg>