<svg version="1.2" xmlns="http://www.w3.org/2000/svg" viewBox="0 0 1792 1792" width="1792" height="1792">
	<title>cog-svg</title>
	<defs>
		<linearGradient id="g1" x1="889.5" y1="1669.4" x2="889.5" y2="133.4" gradientUnits="userSpaceOnUse">
			<stop offset="0" stop-color="#fbf288"/>
			<stop offset=".3" stop-color="#dfc25a"/>
			<stop offset=".5" stop-color="#b77f2b"/>
			<stop offset=".9" stop-color="#fbf288"/>
			<stop offset="1" stop-color="#b77f2b"/>
		</linearGradient>
	</defs>
	<style>
		.s0 { fill: url(#g1);stroke: #fbf288;stroke-linejoin: round;stroke-width: 25 } 
	</style>
	<path id="path3029" fill-rule="evenodd" class="s0" d="m1657.5 792.4v222q0 12-8 23q-8 11-20 13l-185 28q-19 54-39 91q35 50 107 138q10 12 10 25q0 13-9 23q-27 37-99 108q-72 71-94 71q-12 0-26-9l-138-108q-44 23-91 38q-16 136-29 186q-7 28-36 28h-222q-14 0-24.5-8.5q-10.5-8.5-11.5-21.5l-28-184q-49-16-90-37l-141 107q-10 9-25 9q-14 0-25-11q-126-114-165-168q-7-10-7-23q0-12 8-23q15-21 51-66.5q36-45.5 54-70.5q-27-50-41-99l-183-27q-13-2-21-12.5q-8-10.5-8-23.5v-222q0-12 8-23q8-11 19-13l186-28q14-46 39-92q-40-57-107-138q-10-12-10-24q0-10 9-23q26-36 98.5-107.5q72.5-71.5 94.5-71.5q13 0 26 10l138 107q44-23 91-38q16-136 29-186q7-28 36-28h222q14 0 24.5 8.5q10.5 8.5 11.5 21.5l28 184q49 16 90 37l142-107q9-9 24-9q13 0 25 10q129 119 165 170q7 8 7 22q0 12-8 23q-15 21-51 66.5q-36 45.5-54 70.5q26 50 41 98l183 28q13 2 21 12.5q8 10.5 8 23.5zm-512 109q0-106-75-181q-75-75-181-75q-106 0-181 75q-75 75-75 181q0 106 75 181q75 75 181 75q106 0 181-75q75-75 75-181z" />
</svg>