<?xml version="1.0" encoding="utf-8"?>
<!-- Generator: Adobe Illustrator 24.0.2, SVG Export Plug-In . SVG Version: 6.00 Build 0)  -->
<svg version="1.1" id="Layer_1" xmlns="http://www.w3.org/2000/svg" xmlns:xlink="http://www.w3.org/1999/xlink" x="0px" y="0px"
	 viewBox="0 0 200 200" style="enable-background:new 0 0 200 200;" xml:space="preserve">
<style type="text/css">
	.st0{clip-path:url(#SVGID_2_);}
</style>
<g>
	<g>
		<defs>
			<rect id="SVGID_1_" x="11" y="11" width="178" height="178"/>
		</defs>
		<clipPath id="SVGID_2_">
			<use xlink:href="#SVGID_1_"  style="overflow:visible;"/>
		</clipPath>
		<path class="st0" d="M13.4,177.1c-2.7,2.7-2.7,7.1,0,9.8c1.4,1.4,3.1,2,4.9,2c1.8,0,3.6-0.7,4.9-2l32.2-32.2
			c13.7,8.2,28.6,12.4,44.3,12.4c0,0,0.1,0,0.1,0c0.1,0,0.1,0,0.2,0c0,0,0.1,0,0.1,0c21.4-0.1,41.1-7.9,58.5-23.1
			c14.3-12.5,23.4-27,27.6-34.6c3.2-5.8,3.2-12.8-0.1-18.6c-4.8-8.6-14.8-24-30.3-36.7l31-31c2.7-2.7,2.7-7.1,0-9.8
			c-2.7-2.7-7.1-2.7-9.8,0L13.4,177.1z M123.4,86.8c5.9,10.4,4.4,23.7-4.4,32.5c-8.8,8.8-22.1,10.3-32.5,4.4l10.1-10.1
			c1.4,0.3,2.9,0.5,4.4,0.4c6.8-0.5,12.2-6,12.7-12.7c0.1-1.5,0-3-0.4-4.4L123.4,86.8L123.4,86.8z M174.1,102.7
			c-8.4,15.2-32.3,50.4-74.2,50.5c-12,0-23.5-3-34.2-8.8l10.7-10.7c7,4.9,15.2,7.4,23.4,7.4c10.5,0,21-4,29-12
			c14.2-14.2,15.8-36.3,4.6-52.4l12.7-12.7c14.3,11.4,23.6,25.7,28,33.6C175,99.3,175,101.2,174.1,102.7L174.1,102.7z M127.3,45.2
			c-1,3.7-4.9,5.8-8.6,4.8c-6.8-1.9-13-2.9-19-2.9c-41.4,0-65.7,35.4-74.2,50.6c-0.7,1.3-0.9,2.8-0.4,4.1c0.2,0.3,0.4,0.6,0.6,0.9
			c2.7,4.8,7.2,12.2,13.8,19.9c2.5,2.9,2.1,7.3-0.8,9.8c-1.3,1.1-2.9,1.7-4.5,1.7c-2,0-3.9-0.8-5.3-2.4
			c-6.7-7.9-11.6-15.5-14.6-20.9c-0.4-0.4-0.7-0.9-1-1.4c-3.2-5.8-3.2-12.7,0.1-18.5c4.2-7.6,13.5-22.1,27.7-34.6
			C58.7,41,78.4,33.2,99.8,33.2c7.3,0,14.7,1.1,22.8,3.4C126.2,37.6,128.4,41.5,127.3,45.2L127.3,45.2z M99,59.2
			c3.8-0.1,7,3,7.1,6.8c0.1,3.8-3,7-6.8,7.1c-7,0.1-13.6,3-18.6,7.9c-5.1,5.1-7.9,11.9-7.9,19.1c0,3.8-3.1,6.9-6.9,6.9
			c-3.8,0-6.9-3.1-6.9-6.9c0-10.9,4.3-21.2,12-28.9C78.4,63.7,88.4,59.5,99,59.2L99,59.2z M99,59.2"/>
	</g>
</g>
</svg>
