<?xml version="1.0" encoding="utf-8"?>
<!-- Generator: Adobe Illustrator 24.0.2, SVG Export Plug-In . SVG Version: 6.00 Build 0)  -->
<svg version="1.1" id="Layer_1" xmlns="http://www.w3.org/2000/svg" xmlns:xlink="http://www.w3.org/1999/xlink" x="0px" y="0px"
	 viewBox="0 0 200 200" style="enable-background:new 0 0 200 200;" xml:space="preserve">
<style type="text/css">
	.st0{clip-path:url(#SVGID_2_);fill:#FFEF0D;}
	.st1{fill:#FFEF0D}
</style>
<g>
	<g>
		<defs>
			<rect id="SVGID_1_" x="10.5" y="43" width="178.9" height="114"/>
		</defs>
		<clipPath id="SVGID_2_">
			<use xlink:href="#SVGID_1_"  style="overflow:visible;"/>
		</clipPath>
		<path class="st0" d="M23.9,100c9.2,11.1,40.2,45.2,76.1,45.2c35.9,0,66.9-34.1,76.1-45.2c-9.2-11.1-40.2-45.2-76.1-45.2
			C64.1,54.8,33.1,88.8,23.9,100L23.9,100z M100,157c-48.6,0-86.7-51.4-88.3-53.5c-1.5-2.1-1.5-4.9,0-7C13.3,94.3,51.4,43,100,43
			s86.7,51.4,88.3,53.5c1.5,2.1,1.5,4.9,0,7C186.7,105.7,148.6,157,100,157L100,157z"/>
	</g>
	<path class="st1" d="M100,76.4C87,76.4,76.4,87,76.4,100S87,123.6,100,123.6c13,0,23.6-10.6,23.6-23.6S113,76.4,100,76.4L100,76.4z
		 M100,135.4c-19.5,0-35.4-15.9-35.4-35.4S80.5,64.6,100,64.6s35.4,15.9,35.4,35.4S119.5,135.4,100,135.4L100,135.4z"/>
</g>
</svg>
