<svg version="1.2" xmlns="http://www.w3.org/2000/svg" viewBox="0 0 1000 1000" width="1000" height="1000">
	<title>logout-svg</title>
	<defs>
		<linearGradient id="g1" x1="348.3" y1="983.4" x2="348.3" y2="16.6" gradientUnits="userSpaceOnUse">
			<stop offset="0" stop-color="#fbf288"/>
			<stop offset=".2" stop-color="#ddbf5e"/>
			<stop offset=".3" stop-color="#b77f2b"/>
			<stop offset=".7" stop-color="#fbf288"/>
			<stop offset="1" stop-color="#b77f2b"/>
		</linearGradient>
		<linearGradient id="g2" x1="758.6" y1="604" x2="758.6" y2="287.7" gradientUnits="userSpaceOnUse">
			<stop offset="0" stop-color="#fbf288"/>
			<stop offset=".1" stop-color="#ddbf5e"/>
			<stop offset=".4" stop-color="#b77f2b"/>
			<stop offset=".5" stop-color="#fbf288"/>
			<stop offset="1" stop-color="#b77f2b"/>
		</linearGradient>
	</defs>
	<style>
		.s0 { fill: url(#g1);stroke: #fbf288;stroke-linejoin: round;stroke-width: 22 } 
		.s1 { fill: url(#g2);stroke: #fbf288;stroke-linejoin: round;stroke-width: 10 } 
	</style>
	<path id="Layer" class="s0" d="m39.3 16.6l312.7 0.5l312.7 0.6l6.1 4.6c3.2 2.4 8.2 7.8 11 11.7l4.8 7.1v144.9v145.1h-33.6h-33.6v-122.5v-122.6h-220.6c-133.8 0-219.4 0.9-217.5 2.2c1.8 1.1 42.7 24.3 91.1 51.8c61.8 35 89.4 51.9 93.3 56.9l5.4 6.9l0.6 273l0.5 272.8h123.6h123.6v-95.4v-95.4h33.6h33.6v118v117.7l-5 7.2c-2.6 4.1-8.2 9.3-12.4 11.7c-7.3 4.5-10.8 4.5-152.2 5.2l-144.6 0.6l-0.7 71.2l-0.6 71.1l-5.9 7.6c-7.4 9.5-22.3 16-32.5 13.9c-5.9-1.1-59-30.8-304.9-169.8c-6.7-3.7-10.9-8.3-13.7-14.4c-3.9-8.8-4.1-21.2-4.1-382.1v-373l5-8.6c3-5.7 8-10.4 14.5-13.7z" />
	<path id="Layer" class="s1" d="m779.6 287.7c7.2 0 18.9 7.8 107.8 72.2c93.5 67.9 99.8 72.9 101.7 80.5c1.5 6.3 1.1 9.5-1.1 13.9c-4.8 8.4-198 147.8-206.9 149.4c-5.8 0.8-8.4 0-14.5-5.5l-7.4-6.5l-0.6-49l-0.7-48.8l-98-0.6c-95.6-0.7-98.2-0.9-106.7-5.4q-25.7-13.7-26-43c0-22.7 15-41.2 38-46.4c5.8-1.3 46.8-2.4 101.2-2.4h91.5l0.7-49l0.6-49l6.1-5.2c4.1-3.5 8.7-5.2 14.3-5.2z" />
</svg>