<?xml version="1.0" encoding="utf-8"?>
<!-- Generator: Adobe Illustrator 24.0.2, SVG Export Plug-In . SVG Version: 6.00 Build 0)  -->
<svg version="1.1" id="Layer_1" xmlns="http://www.w3.org/2000/svg" xmlns:xlink="http://www.w3.org/1999/xlink" x="0px" y="0px"
	 viewBox="0 0 200 200" style="enable-background:new 0 0 200 200;" xml:space="preserve">
<style type="text/css">
	.st0{fill:#231F20;}
	.st1{clip-path:url(#SVGID_2_);}
	.st2{fill:#0B040C;}
</style>
<g>
	<g>
		<path class="st0" d="M100,196.2c-53.1,0-96.2-43.2-96.2-96.2C3.8,46.9,46.9,3.8,100,3.8c53.1,0,96.2,43.2,96.2,96.2
			C196.2,153.1,153.1,196.2,100,196.2z M100,6.3c-51.6,0-93.7,42-93.7,93.7s42,93.7,93.7,93.7c51.6,0,93.7-42,93.7-93.7
			S151.6,6.3,100,6.3z"/>
	</g>
	<g>
		<g>
			<defs>
				<rect id="SVGID_1_" x="30.1" y="30.3" width="139.9" height="139.4"/>
			</defs>
			<clipPath id="SVGID_2_">
				<use xlink:href="#SVGID_1_"  style="overflow:visible;"/>
			</clipPath>
			<g class="st1">
				<path class="st2" d="M139.3,147c-10.4,8.2-23.6,13.2-38.1,13.2c-17,0-32.4-7-43.4-18.1c-11.1-11.1-18.1-26.5-18.1-43.4
					c0-14.1,4.6-27,12.7-37.4c5.5-7.2,12.5-13,20.6-17.2c-0.9,2-1.8,3.9-2.5,6.1c-2.3,6.4-3.4,13.2-3.4,20.4c0,17,7,32.5,18.1,43.6
					c11.1,11.1,26.6,18.1,43.6,18.1c7.5,0,14.7-1.3,21.3-3.8c2.3-0.9,4.6-1.8,6.8-2.9C152.5,133.9,146.6,141.3,139.3,147L139.3,147z
					 M166.6,109.6c-1.4-0.4-2.9,0-4.1,0.9l0,0c-4.6,3.9-10,7.2-15.9,9.3c-5.5,2.1-11.6,3.2-18.1,3.2c-14.5,0-27.7-5.9-37.2-15.4
					C81.9,98.2,76,85,76,70.5c0-6.1,1.1-12,2.9-17.3c2-5.7,4.8-10.9,8.6-15.4c1.6-2,1.3-4.8-0.7-6.4c-1.3-0.9-2.7-1.3-4.1-0.9l0,0
					c-15.2,4.1-28.4,13.2-37.9,25.4c-9.1,12-14.7,26.8-14.7,43.1c0,19.5,7.9,37.2,20.7,50.1c12.9,12.9,30.6,20.7,50.1,20.7
					c16.4,0,31.6-5.7,43.8-15.2c12.3-9.7,21.3-23.4,25-39.1C170.6,112.7,169.1,110.2,166.6,109.6L166.6,109.6z"/>
			</g>
		</g>
	</g>
</g>
</svg>
