<?xml version="1.0" encoding="utf-8"?>
<!-- Generator: Adobe Illustrator 24.0.2, SVG Export Plug-In . SVG Version: 6.00 Build 0)  -->
<svg version="1.1" id="Layer_1" xmlns="http://www.w3.org/2000/svg" xmlns:xlink="http://www.w3.org/1999/xlink" x="0px" y="0px"
	 viewBox="0 0 200 200" style="enable-background:new 0 0 200 200;" xml:space="preserve">
<style type="text/css">
	.st0{fill:#231F20;}
	.st1{fill:#0B040C;}
</style>
<g>
	<path class="st0" d="M100.8,196.9c-53.1,0-96.2-43.2-96.2-96.2c0-53.1,43.2-96.2,96.2-96.2c53.1,0,96.2,43.2,96.2,96.2
		C197.1,153.7,153.9,196.9,100.8,196.9z M100.8,7C49.2,7,7.2,49,7.2,100.7s42,93.7,93.7,93.7c51.6,0,93.7-42,93.7-93.7
		S152.5,7,100.8,7z"/>
</g>
<g>
	<path class="st1" d="M83.3,83.1C87.7,78.6,94,76,100.8,76c6.8,0,13.1,2.7,17.5,7.2c4.5,4.5,7.2,10.7,7.2,17.5
		c0,6.8-2.7,13.1-7.2,17.5c-4.5,4.5-10.7,7.2-17.5,7.2c-6.8,0-13.1-2.7-17.5-7.2c-4.5-4.5-7.2-10.7-7.2-17.5
		C76.1,93.9,78.8,87.6,83.3,83.1L83.3,83.1z M76.8,124.7c6.1,6.1,14.7,10,24,10c9.3,0,17.9-3.8,24-10c6.1-6.1,10-14.7,10-24
		s-3.8-17.9-10-24c-6.1-6.1-14.7-10-24-10c-9.3,0-17.9,3.8-24,10c-6.1,6.1-10,14.7-10,24S70.7,118.6,76.8,124.7L76.8,124.7z"/>
	<path class="st1" d="M145.4,100.7c0,2.5,2.1,4.7,4.7,4.7h13.8c2.5,0,4.7-2.1,4.7-4.7c0-2.5-2.1-4.7-4.7-4.7h-13.8
		C147.6,96,145.4,98.2,145.4,100.7L145.4,100.7z"/>
	<path class="st1" d="M96.2,149.9v13.8c0,2.5,2.1,4.7,4.7,4.7c2.5,0,4.7-2.1,4.7-4.7v-13.8c0-2.5-2.1-4.7-4.7-4.7
		C98.3,145.2,96.2,147.4,96.2,149.9L96.2,149.9z"/>
	<path class="st1" d="M132.3,132.2c-1.8,1.8-1.8,4.7,0,6.4l9.8,9.8c1.8,1.8,4.7,1.8,6.4,0c1.8-1.8,1.8-4.7,0-6.4l-9.8-9.8
		C137.2,130.4,134.1,130.4,132.3,132.2L132.3,132.2z"/>
	<path class="st1" d="M100.8,56.1c2.5,0,4.7-2.1,4.7-4.7V37.6c0-2.5-2.1-4.7-4.7-4.7c-2.5,0-4.7,2.1-4.7,4.7v13.8
		C96.2,53.9,98.3,56.1,100.8,56.1L100.8,56.1z"/>
	<path class="st1" d="M139,69.1l9.8-9.8c1.8-1.8,1.8-4.7,0-6.4c-1.8-1.8-4.7-1.8-6.4,0l-9.8,9.8c-1.8,1.8-1.8,4.7,0,6.4
		C134.1,70.9,137.2,70.9,139,69.1L139,69.1z"/>
	<path class="st1" d="M37.8,105.3h13.8c2.5,0,4.7-2.1,4.7-4.7c0-2.5-2.1-4.7-4.7-4.7H37.8c-2.5,0-4.7,2.1-4.7,4.7
		C33.1,103.2,35.1,105.3,37.8,105.3L37.8,105.3z"/>
	<path class="st1" d="M62.7,132.2l-9.8,9.8c-1.8,1.8-1.8,4.7,0,6.4c1.8,1.8,4.7,1.8,6.4,0l9.8-9.8c1.8-1.8,1.8-4.7,0-6.4
		C67.5,130.4,64.5,130.4,62.7,132.2L62.7,132.2z"/>
	<path class="st1" d="M62.7,69.1c1.8,1.8,4.7,1.8,6.4,0c1.8-1.8,1.8-4.7,0-6.4l-9.8-9.8c-1.8-1.8-4.7-1.8-6.4,0
		c-1.8,1.8-1.8,4.7,0,6.4L62.7,69.1L62.7,69.1z"/>
</g>
</svg>
