<?xml version="1.0" encoding="utf-8"?>
<!-- Generator: Adobe Illustrator 24.0.2, SVG Export Plug-In . SVG Version: 6.00 Build 0)  -->
<svg version="1.1" id="Layer_1" xmlns="http://www.w3.org/2000/svg" xmlns:xlink="http://www.w3.org/1999/xlink" x="0px" y="0px"
	 viewBox="0 0 200 200" style="enable-background:new 0 0 200 200;" xml:space="preserve">
<style type="text/css">
	.st0{fill:#FFEF0D;}
</style>
<g>
	<path class="st0" d="M27.8,178.7h144.4c-2.6-35.6-26.9-53.6-72.2-53.6S30.4,143.2,27.8,178.7L27.8,178.7z M179.2,192.2H20.8
		c-3.7,0-6.7-3-6.7-6.7c0-47.6,30.5-73.8,85.9-73.8c55.4,0,85.9,26.2,85.9,73.8C185.9,189.2,182.9,192.2,179.2,192.2L179.2,192.2z"
		/>
	<path class="st0" d="M100,21.3c-18.1,0-31.2,13.5-31.2,32.1c0,19.3,14,35,31.2,35s31.2-15.7,31.2-35C131.2,35,117.8,21.3,100,21.3
		L100,21.3z M100,101.8c-24.6,0-44.6-21.7-44.6-48.5c0-26,19.2-45.5,44.6-45.5c25.5,0,44.6,19.6,44.6,45.5
		C144.6,80.1,124.6,101.8,100,101.8L100,101.8z"/>
</g>
</svg>
